<svg width="202" height="114" viewBox="0 0 202 114" fill="none" xmlns="http://www.w3.org/2000/svg">
<path d="M186.219 0.0252512C177.501 0.0252512 170.438 7.09525 170.438 15.8065C170.438 17.5993 170.804 19.2847 171.346 20.8881L132.878 54.0098C130.183 51.8572 126.812 50.5189 123.094 50.5189C118.801 50.5189 114.925 52.2422 112.085 55.0197L81.9489 39.9329C81.3618 31.7519 74.6138 25.2689 66.2812 25.2689C57.57 25.2689 50.5 32.3389 50.5 41.0502C50.5 43.4363 51.0681 45.6709 52.015 47.6973L21.2921 83.123C19.5688 82.4791 17.7318 82.0751 15.7812 82.0751C7.06369 82.0751 0 89.1388 0 97.8564C0 106.574 7.06369 113.638 15.7812 113.638C24.4988 113.638 31.5625 106.574 31.5625 97.8564C31.5625 95.7606 31.1333 93.7596 30.3884 91.9289L61.61 56.0424C63.0998 56.5032 64.64 56.8251 66.2812 56.8251C70.8704 56.8251 74.9736 54.8304 77.8584 51.6931L107.331 66.4706C107.439 75.0998 114.446 82.0688 123.094 82.0688C131.811 82.0688 138.875 75.0051 138.875 66.2876C138.875 66.0098 138.806 65.7447 138.793 65.4669L179.843 30.199C181.794 31.0638 183.94 31.5625 186.219 31.5625C194.936 31.5625 202 24.4988 202 15.7813C202 7.06369 194.936 0 186.219 0V0.0252512Z" fill="#3B3B3B"/>
</svg>
