<svg width="124" height="124" viewBox="0 0 124 124" fill="none" xmlns="http://www.w3.org/2000/svg">
<path d="M117.8 55.8H116.746C110.217 55.8 104.606 51.6522 102.133 45.6072L102.002 45.3034C99.4728 39.246 100.459 32.302 105.102 27.6582L105.84 26.9204C106.416 26.3448 106.872 25.6614 107.184 24.9093C107.496 24.1572 107.656 23.3511 107.656 22.537C107.656 21.7229 107.496 20.9168 107.184 20.1647C106.872 19.4126 106.416 18.7292 105.84 18.1536C105.265 17.578 104.581 17.1213 103.829 16.8098C103.077 16.4983 102.271 16.3379 101.457 16.3379C100.643 16.3379 99.8366 16.4983 99.0845 16.8098C98.3324 17.1213 97.649 17.578 97.0734 18.1536L96.3356 18.8914C91.6918 23.5352 84.7478 24.521 78.6904 21.9914L78.3866 21.8612C72.3478 19.3936 68.2 13.7516 68.2 7.223V6.7208C68.2 2.7714 65.4286 0 62 0C58.5714 0 55.8 2.7714 55.8 6.2V6.4232C55.8 13.2184 51.708 19.344 45.4274 21.9418L45.3902 21.9604C42.32 23.2312 38.9419 23.5632 35.683 22.9143C32.4241 22.2654 29.4309 20.6648 27.0816 18.3148L26.9266 18.1598C26.351 17.5842 25.6676 17.1275 24.9155 16.816C24.1634 16.5045 23.3573 16.3441 22.5432 16.3441C21.7291 16.3441 20.923 16.5045 20.1709 16.816C19.4188 17.1275 18.7354 17.5842 18.1598 18.1598C17.5842 18.7354 17.1275 19.4188 16.816 20.1709C16.5045 20.923 16.3441 21.7291 16.3441 22.5432C16.3441 23.3573 16.5045 24.1634 16.816 24.9155C17.1275 25.6676 17.5842 26.351 18.1598 26.9266L18.383 27.1498C20.7122 29.481 22.2986 32.45 22.9419 35.682C23.5852 38.914 23.2566 42.2642 21.9976 45.3096L21.8302 45.7064C20.5923 48.6933 18.4969 51.2462 15.8087 53.0428C13.1206 54.8393 9.96023 55.7988 6.727 55.8C2.7776 55.8 0 58.5714 0 62C0 65.4286 2.7714 68.2 6.2 68.2H6.6216C9.88634 68.1992 13.0779 69.1673 15.7919 70.9818C18.506 72.7964 20.6204 75.3756 21.8674 78.3928L21.9976 78.6966C23.2566 81.742 23.5852 85.0922 22.9419 88.3242C22.2986 91.5562 20.7122 94.5252 18.383 96.8564L18.1598 97.0796C16.9972 98.2422 16.3441 99.8189 16.3441 101.463C16.3441 103.107 16.9972 104.684 18.1598 105.846C19.3223 107.009 20.8991 107.662 22.5432 107.662C24.1873 107.662 25.764 107.009 26.9266 105.846L27.1498 105.623C29.4806 103.293 32.4496 101.706 35.6818 101.063C38.914 100.42 42.2643 100.749 45.3096 102.009L46.1962 102.381C49.0398 103.555 51.4706 105.547 53.1804 108.104C54.8902 110.662 55.802 113.67 55.8 116.746V117.273C55.8 121.229 58.5714 124 62 124C65.4286 124 68.2 121.222 68.2 117.8V116.746C68.2 110.453 71.9882 104.78 77.81 102.374L79.3724 101.73C82.2167 100.55 85.3473 100.241 88.3672 100.843C91.3871 101.444 94.1604 102.929 96.3356 105.109L97.0734 105.846C97.649 106.422 98.3324 106.879 99.0845 107.19C99.8366 107.502 100.643 107.662 101.457 107.662C102.271 107.662 103.077 107.502 103.829 107.19C104.581 106.879 105.265 106.422 105.84 105.846C106.416 105.271 106.872 104.587 107.184 103.835C107.496 103.083 107.656 102.277 107.656 101.463C107.656 100.649 107.496 99.8428 107.184 99.0907C106.872 98.3386 106.416 97.6552 105.84 97.0796L105.102 96.3418C100.459 91.698 99.4728 84.754 102.002 78.6966L102.133 78.3928C104.606 72.3478 110.248 68.2 116.777 68.2H117.273C121.229 68.2 124 65.4286 124 62C124 58.5714 121.229 55.8 117.8 55.8ZM37.2 68.2C35.5557 68.2 33.9787 67.5468 32.8159 66.3841C31.6532 65.2213 31 63.6443 31 62C31 60.3557 31.6532 58.7787 32.8159 57.6159C33.9787 56.4532 35.5557 55.8 37.2 55.8C38.8443 55.8 40.4213 56.4532 41.5841 57.6159C42.7468 58.7787 43.4 60.3557 43.4 62C43.4 63.6443 42.7468 65.2213 41.5841 66.3841C40.4213 67.5468 38.8443 68.2 37.2 68.2ZM68.2 89.9C66.5557 89.9 64.9787 89.2468 63.8159 88.0841C62.6532 86.9213 62 85.3443 62 83.7C62 82.0557 62.6532 80.4787 63.8159 79.3159C64.9787 78.1532 66.5557 77.5 68.2 77.5C69.8443 77.5 71.4213 78.1532 72.5841 79.3159C73.7468 80.4787 74.4 82.0557 74.4 83.7C74.4 85.3443 73.7468 86.9213 72.5841 88.0841C71.4213 89.2468 69.8443 89.9 68.2 89.9ZM74.4 62C72.7712 61.9996 71.1584 61.6784 69.6538 61.0547C68.1491 60.431 66.782 59.517 65.6306 58.365C64.4791 57.213 63.5659 55.8455 62.9429 54.3405C62.32 52.8355 61.9996 51.2226 62 49.5938C62.0004 47.965 62.3216 46.3522 62.9453 44.8476C63.569 43.3429 64.483 41.9758 65.635 40.8244C66.787 39.6729 68.1545 38.7597 69.6595 38.1367C71.1645 37.5138 72.7774 37.1934 74.4062 37.1938C77.6957 37.1946 80.8502 38.5022 83.1756 40.8288C85.5011 43.1554 86.807 46.3105 86.8062 49.6C86.8054 52.8895 85.4978 56.044 83.1712 58.3694C80.8446 60.6949 77.6895 62.0008 74.4 62Z" fill="#3B3B3B"/>
</svg>
