<svg width="844" height="552" viewBox="0 0 844 552" fill="none" xmlns="http://www.w3.org/2000/svg">
<g filter="url(#filter0_d_35_150)">
<path opacity="0.1" d="M610.688 535.989H545.084L526.148 357.12L525.868 354.535V354.527L524.261 339.326L589.886 338.862L591.899 338.847L592.039 340.305L610.688 535.989Z" fill="#40513B"/>
<path opacity="0.1" d="M527.18 356.067L526.148 357.12L349.851 535.989H260.019L483.328 304.607L525.868 354.527L527.18 356.067Z" fill="#40513B"/>
<path d="M795.446 503.568C785.349 514.32 773.154 522.89 759.612 528.747C746.071 534.605 731.471 537.626 716.715 537.624H161.613C125.944 537.639 91.6686 523.782 66.0459 498.987L66.842 498.854C147.844 485.928 274.989 477.599 417.946 477.599C576.213 477.599 715.093 487.807 793.449 503.17C794.119 503.295 794.783 503.428 795.446 503.568Z" fill="#E8EAF2"/>
<path opacity="0.3" d="M795.446 503.944C785.349 514.696 773.154 523.265 759.612 529.123C746.071 534.98 731.471 538.002 716.715 538H161.613C125.943 538.013 91.6675 524.153 66.0459 499.355L66.842 499.223C147.844 486.267 274.989 477.967 417.946 477.967C576.213 477.967 715.093 488.175 793.449 503.539C794.119 503.664 794.783 503.796 795.446 503.944Z" fill="#40513B"/>
<path d="M518.194 412.101C582.923 412.101 635.396 359.671 635.396 294.995C635.396 230.32 582.923 177.89 518.194 177.89C453.465 177.89 400.992 230.32 400.992 294.995C400.992 359.671 453.465 412.101 518.194 412.101Z" fill="#DCAC00"/>
<path d="M631.342 499.701L625.349 521.745C624.224 525.883 621.768 529.537 618.359 532.142C614.95 534.747 610.778 536.158 606.486 536.159H234.979C230.687 536.158 226.515 534.747 223.106 532.142C219.697 529.537 217.241 525.883 216.116 521.745L210.123 499.701C204.905 480.493 218.556 460.88 238.458 459.989C238.945 459.989 239.431 459.952 239.932 459.952H601.57C602.064 459.952 602.55 459.952 603.044 459.989C622.924 460.88 636.575 480.493 631.342 499.701Z" fill="#3F3D56"/>
<path opacity="0.1" d="M595.355 469.983C595.355 493.795 514.479 513.098 414.717 513.098C314.956 513.098 234.079 493.795 234.079 469.983C234.079 466.521 235.782 463.163 238.996 459.952H590.439C593.645 463.163 595.355 466.521 595.355 469.983Z" fill="black"/>
<path d="M644.529 371.828C644.529 354.24 628.349 339.981 608.41 339.981C588.471 339.981 572.291 354.24 572.291 371.828C552.345 371.828 536.172 386.094 536.172 403.682C536.172 421.27 552.352 435.537 572.291 435.537C578.567 435.559 584.758 434.095 590.358 431.265C595.963 434.072 602.147 435.534 608.417 435.534C614.688 435.534 620.871 434.072 626.477 431.265C632.077 434.095 638.268 435.559 644.543 435.537C664.497 435.537 680.662 421.27 680.662 403.682C680.662 386.094 664.512 371.828 644.529 371.828Z" fill="#40513B"/>
<path opacity="0.1" d="M644.529 371.828C644.529 354.24 628.349 339.981 608.41 339.981C588.471 339.981 572.291 354.24 572.291 371.828C552.345 371.828 536.172 386.094 536.172 403.682C536.172 421.27 552.352 435.537 572.291 435.537C578.567 435.559 584.758 434.095 590.358 431.265C595.963 434.072 602.147 435.534 608.417 435.534C614.688 435.534 620.871 434.072 626.477 431.265C632.077 434.095 638.268 435.559 644.543 435.537C664.497 435.537 680.662 421.27 680.662 403.682C680.662 386.094 664.512 371.828 644.529 371.828Z" fill="black"/>
<path d="M559.156 210.628C559.16 206.209 558.35 201.828 556.767 197.702C564.814 194.853 571.594 189.254 575.91 181.894C580.226 174.535 581.8 165.887 580.354 157.481C578.907 149.074 574.534 141.448 568.006 135.951C561.478 130.454 553.216 127.439 544.679 127.439C544.676 118.581 541.42 110.032 535.529 103.414C529.638 96.7947 521.521 92.5658 512.717 91.5288C503.913 90.4918 495.034 92.7186 487.764 97.7872C480.494 102.856 475.338 110.414 473.274 119.028C472.942 119.028 472.611 119.028 472.279 119.028C472.287 110.016 468.927 101.327 462.859 94.661C456.79 87.9952 448.449 83.8335 439.47 82.9912C430.49 82.1488 421.52 84.6865 414.315 90.1071C407.111 95.5277 402.191 103.441 400.52 112.296C395.181 108.103 388.768 105.496 382.016 104.772C375.263 104.048 368.443 105.238 362.335 108.204C356.227 111.17 351.078 115.794 347.475 121.546C343.873 127.298 341.963 133.947 341.964 140.733C334.178 140.744 326.603 143.263 320.364 147.917C314.125 152.57 309.554 159.11 307.33 166.566C305.106 174.021 305.348 181.994 308.019 189.302C310.69 196.609 315.648 202.861 322.157 207.129C321.691 209.47 321.457 211.85 321.457 214.237C315.903 214.234 310.423 215.508 305.441 217.961C300.459 220.414 296.108 223.979 292.726 228.381C289.344 232.782 287.021 237.903 285.937 243.345C284.852 248.788 285.036 254.407 286.474 259.767C287.911 265.128 290.563 270.086 294.226 274.258C297.888 278.43 302.462 281.704 307.594 283.826C312.725 285.949 318.277 286.863 323.819 286.499C329.361 286.134 334.745 284.5 339.553 281.723C345.056 284.898 351.299 286.569 357.653 286.569C364.008 286.569 370.25 284.898 375.753 281.723C382.46 285.593 390.233 287.211 397.929 286.339C405.625 285.467 412.837 282.15 418.506 276.877C419.133 276.877 419.759 276.928 420.393 276.928C426.75 276.934 432.996 275.259 438.497 272.075C446.581 276.758 456.17 278.118 465.239 275.868C470.911 280.051 477.681 282.488 484.719 282.88C491.758 283.273 498.757 281.604 504.859 278.077C510.363 281.252 516.605 282.923 522.959 282.923C529.314 282.923 535.556 281.252 541.059 278.077C545.868 280.854 551.252 282.488 556.794 282.853C562.336 283.218 567.887 282.303 573.019 280.181C578.151 278.058 582.725 274.784 586.387 270.612C590.049 266.44 592.702 261.482 594.139 256.122C595.577 250.761 595.76 245.142 594.676 239.7C593.592 234.257 591.269 229.137 587.886 224.735C584.504 220.333 580.154 216.768 575.172 214.315C570.19 211.863 564.71 210.588 559.156 210.591V210.628ZM393.85 214.244C393.847 212.687 393.744 211.132 393.54 209.589C394.469 209.155 395.383 208.698 396.267 208.182C397.713 209.028 399.218 209.766 400.771 210.392C398.986 211.549 397.304 212.857 395.744 214.303C395.117 214.259 394.483 214.244 393.85 214.244Z" fill="#40513B"/>
<path d="M542.666 310.293C542.538 301.735 539.045 293.571 532.943 287.565C526.84 281.559 518.618 278.192 510.053 278.192C501.487 278.192 493.265 281.559 487.162 287.565C481.06 293.571 477.567 301.735 477.439 310.293C472.434 310.29 467.496 311.438 463.006 313.647C458.517 315.857 454.597 319.069 451.549 323.036C448.501 327.002 446.408 331.616 445.43 336.52C444.453 341.424 444.619 346.488 445.914 351.318C447.209 356.148 449.599 360.615 452.9 364.375C456.2 368.134 460.321 371.084 464.946 372.996C469.57 374.909 474.572 375.732 479.566 375.403C484.56 375.074 489.411 373.602 493.744 371.099C498.701 373.965 504.326 375.473 510.053 375.473C515.779 375.473 521.404 373.965 526.361 371.099C530.693 373.596 535.542 375.064 540.532 375.39C545.523 375.716 550.522 374.89 555.142 372.977C559.762 371.064 563.88 368.115 567.177 364.357C570.474 360.6 572.862 356.135 574.156 351.308C575.451 346.482 575.617 341.422 574.641 336.521C573.666 331.62 571.575 327.009 568.531 323.044C565.487 319.079 561.571 315.867 557.086 313.656C552.601 311.445 547.667 310.294 542.666 310.293Z" fill="#40513B"/>
<path opacity="0.1" d="M542.666 310.293C542.538 301.735 539.045 293.571 532.943 287.565C526.84 281.559 518.618 278.192 510.053 278.192C501.487 278.192 493.265 281.559 487.162 287.565C481.06 293.571 477.567 301.735 477.439 310.293C472.434 310.29 467.496 311.438 463.006 313.647C458.517 315.857 454.597 319.069 451.549 323.036C448.501 327.002 446.408 331.616 445.43 336.52C444.453 341.424 444.619 346.488 445.914 351.318C447.209 356.148 449.599 360.615 452.9 364.375C456.2 368.134 460.321 371.084 464.946 372.996C469.57 374.909 474.572 375.732 479.566 375.403C484.56 375.074 489.411 373.602 493.744 371.099C498.701 373.965 504.326 375.473 510.053 375.473C515.779 375.473 521.404 373.965 526.361 371.099C530.693 373.596 535.542 375.064 540.532 375.39C545.523 375.716 550.522 374.89 555.142 372.977C559.762 371.064 563.88 368.115 567.177 364.357C570.474 360.6 572.862 356.135 574.156 351.308C575.451 346.482 575.617 341.422 574.641 336.521C573.666 331.62 571.575 327.009 568.531 323.044C565.487 319.079 561.571 315.867 557.086 313.656C552.601 311.445 547.667 310.294 542.666 310.293Z" fill="black"/>
<path opacity="0.1" d="M559.156 210.628C559.16 206.209 558.35 201.828 556.767 197.702C564.814 194.853 571.594 189.254 575.91 181.894C580.226 174.535 581.8 165.887 580.354 157.481C578.907 149.074 574.534 141.448 568.006 135.951C561.478 130.454 553.216 127.439 544.679 127.439C544.676 118.581 541.42 110.032 535.529 103.414C529.638 96.7947 521.521 92.5658 512.717 91.5288C503.913 90.4918 495.034 92.7186 487.764 97.7872C480.494 102.856 475.338 110.414 473.274 119.028C472.942 119.028 472.611 119.028 472.279 119.028C472.287 110.016 468.927 101.327 462.859 94.661C456.79 87.9952 448.449 83.8335 439.47 82.9912C430.49 82.1488 421.52 84.6865 414.315 90.1071C407.111 95.5277 402.191 103.441 400.52 112.296C395.181 108.103 388.768 105.496 382.016 104.772C375.263 104.048 368.443 105.238 362.335 108.204C356.227 111.17 351.078 115.794 347.475 121.546C343.873 127.298 341.963 133.947 341.964 140.733C334.178 140.744 326.603 143.263 320.364 147.917C314.125 152.57 309.554 159.11 307.33 166.566C305.106 174.021 305.348 181.994 308.019 189.302C310.69 196.609 315.648 202.861 322.157 207.129C321.691 209.47 321.457 211.85 321.457 214.237C315.903 214.234 310.423 215.508 305.441 217.961C300.459 220.414 296.108 223.979 292.726 228.381C289.344 232.782 287.021 237.903 285.937 243.345C284.852 248.788 285.036 254.407 286.474 259.767C287.911 265.128 290.563 270.086 294.226 274.258C297.888 278.43 302.462 281.704 307.594 283.826C312.725 285.949 318.277 286.863 323.819 286.499C329.361 286.134 334.745 284.5 339.553 281.723C345.056 284.898 351.299 286.569 357.653 286.569C364.008 286.569 370.25 284.898 375.753 281.723C382.46 285.593 390.233 287.211 397.929 286.339C405.625 285.467 412.837 282.15 418.506 276.877C419.133 276.877 419.759 276.928 420.393 276.928C426.75 276.934 432.996 275.259 438.497 272.075C446.581 276.758 456.17 278.118 465.239 275.868C470.911 280.051 477.681 282.488 484.719 282.88C491.758 283.273 498.757 281.604 504.859 278.077C510.363 281.252 516.605 282.923 522.959 282.923C529.314 282.923 535.556 281.252 541.059 278.077C545.868 280.854 551.252 282.488 556.794 282.853C562.336 283.218 567.887 282.303 573.019 280.181C578.151 278.058 582.725 274.784 586.387 270.612C590.049 266.44 592.702 261.482 594.139 256.122C595.577 250.761 595.76 245.142 594.676 239.7C593.592 234.257 591.269 229.137 587.886 224.735C584.504 220.333 580.154 216.768 575.172 214.315C570.19 211.863 564.71 210.588 559.156 210.591V210.628ZM393.85 214.244C393.847 212.687 393.744 211.132 393.54 209.589C394.469 209.155 395.383 208.698 396.267 208.182C397.713 209.028 399.218 209.766 400.771 210.392C398.986 211.549 397.304 212.857 395.744 214.303C395.117 214.259 394.483 214.244 393.85 214.244Z" fill="black"/>
<path d="M531.676 388.458C528.86 387.339 526.007 386.205 523 385.822C522.698 385.822 522.395 385.763 522.086 385.741C522.086 385.431 522.086 385.129 522.123 384.827C522.285 381.145 523.427 377.344 526.007 374.686C528.587 372.027 532.177 370.716 533.858 367.578C527.713 365.78 521.352 364.826 514.95 364.743C513.321 364.743 511.589 364.743 510.226 365.671C508.552 366.753 507.83 368.801 507.277 370.731C505.582 377.124 504.439 383.384 502.501 389.622L501.992 389.74C495.137 391.213 486.512 390.071 483.365 383.907C484.151 380.798 485.136 377.742 486.313 374.759C489.999 365.59 495.645 357.348 501.225 349.18C504.837 343.882 508.454 338.589 512.076 333.301C506.654 331.668 501.147 330.333 495.579 329.302C494.4 329.081 493.065 328.904 492.085 329.596C491.419 330.164 490.931 330.91 490.677 331.747C485.355 344.798 478.832 359.079 476.982 373.426C475.945 372.864 474.88 372.358 473.79 371.909L456.644 364.603C455.737 364.298 454.917 363.778 454.256 363.086C452.693 361.149 454.256 358.07 456.541 357.039C458.826 356.008 461.414 356.302 463.912 356.081C466.411 355.86 469.168 354.955 470.097 352.642C471.173 349.983 469.116 346.978 466.603 345.586C464.089 344.194 461.133 343.804 458.495 342.64C456.466 341.692 454.686 340.285 453.296 338.529C451.906 336.774 450.945 334.719 450.489 332.528L446.398 332.336C451.794 327.181 457.389 322.239 463.817 318.446C466.92 316.612 470.207 315.058 473.097 312.9C476.902 309.984 479.882 306.129 481.743 301.714C483.604 297.299 484.283 292.475 483.711 287.718C483.343 284.949 482.554 282.084 483.431 279.433C484.168 277.275 485.834 275.617 487.478 274.049L502.287 259.893C492.861 257.748 483.203 256.798 473.539 257.065C471.092 257.138 468.564 257.3 466.374 258.405C462.379 260.423 460.477 264.99 458.915 269.18C457.724 272.132 456.761 275.171 456.033 278.269C454.942 283.498 455.104 289.228 452.148 293.669C449.804 297.19 445.905 299.267 442.403 301.638C432.425 308.429 424.979 318.33 421.226 329.795C420.99 330.532 420.592 331.475 420.135 332.528C411.459 333.264 402.96 334.914 394.933 338.287C384.842 342.53 376.033 349.269 367.387 355.964C357.863 363.329 347.846 371.57 344.499 383.148C340.777 396 346.519 410.097 355.711 419.826C363.229 427.773 372.768 433.371 382.387 438.401C388.675 441.686 389.721 441.016 395.242 436.597L410.088 424.71C414.326 421.322 418.639 417.845 421.521 413.249C425.494 406.923 426.474 398.887 431.288 393.165C437.877 385.321 451.315 384.665 458.649 391.817C460.758 393.879 462.593 396.575 465.468 397.26C466.868 397.599 468.416 397.407 469.699 397.996C472.146 399.16 472.515 402.415 473.384 404.949C475.78 411.776 483.918 415.349 491.075 414.325C498.233 413.301 504.402 408.654 509.245 403.277C510.565 401.804 511.869 400.243 513.668 399.366C515.107 398.727 516.663 398.396 518.238 398.394C523.465 398.18 528.658 399.33 533.305 401.73C537.632 403.94 541.413 407.217 545.961 408.941C554.961 412.344 565.023 409.11 573.839 405.258L531.676 388.458Z" fill="#3F3D56"/>
<path opacity="0.1" d="M531.676 388.458C528.86 387.339 526.007 386.205 523 385.822C522.698 385.822 522.395 385.763 522.086 385.741C522.086 385.431 522.086 385.129 522.123 384.827C522.285 381.145 523.427 377.344 526.007 374.686C528.587 372.027 532.177 370.716 533.858 367.578C527.713 365.78 521.352 364.826 514.95 364.743C513.321 364.743 511.589 364.743 510.226 365.671C508.552 366.753 507.83 368.801 507.277 370.731C505.582 377.124 504.439 383.384 502.501 389.622L501.992 389.74C495.137 391.213 486.512 390.071 483.365 383.907C484.151 380.798 485.136 377.742 486.313 374.759C489.999 365.59 495.645 357.348 501.225 349.18C504.837 343.882 508.454 338.589 512.076 333.301C506.654 331.668 501.147 330.333 495.579 329.302C494.4 329.081 493.065 328.904 492.085 329.596C491.419 330.164 490.931 330.91 490.677 331.747C485.355 344.798 478.832 359.079 476.982 373.426C475.945 372.864 474.88 372.358 473.79 371.909L456.644 364.603C455.737 364.298 454.917 363.778 454.256 363.086C452.693 361.149 454.256 358.07 456.541 357.039C458.826 356.008 461.414 356.302 463.912 356.081C466.411 355.86 469.168 354.955 470.097 352.642C471.173 349.983 469.116 346.978 466.603 345.586C464.089 344.194 461.133 343.804 458.495 342.64C456.466 341.692 454.686 340.285 453.296 338.529C451.906 336.774 450.945 334.719 450.489 332.528L446.398 332.336C451.794 327.181 457.389 322.239 463.817 318.446C466.92 316.612 470.207 315.058 473.097 312.9C476.902 309.984 479.882 306.129 481.743 301.714C483.604 297.299 484.283 292.475 483.711 287.718C483.343 284.949 482.554 282.084 483.431 279.433C484.168 277.275 485.834 275.617 487.478 274.049L502.287 259.893C492.861 257.748 483.203 256.798 473.539 257.065C471.092 257.138 468.564 257.3 466.374 258.405C462.379 260.423 460.477 264.99 458.915 269.18C457.724 272.132 456.761 275.171 456.033 278.269C454.942 283.498 455.104 289.228 452.148 293.669C449.804 297.19 445.905 299.267 442.403 301.638C432.425 308.429 424.979 318.33 421.226 329.795C420.99 330.532 420.592 331.475 420.135 332.528C411.459 333.264 402.96 334.914 394.933 338.287C384.842 342.53 376.033 349.269 367.387 355.964C357.863 363.329 347.846 371.57 344.499 383.148C340.777 396 346.519 410.097 355.711 419.826C363.229 427.773 372.768 433.371 382.387 438.401C388.675 441.686 389.721 441.016 395.242 436.597L410.088 424.71C414.326 421.322 418.639 417.845 421.521 413.249C425.494 406.923 426.474 398.887 431.288 393.165C437.877 385.321 451.315 384.665 458.649 391.817C460.758 393.879 462.593 396.575 465.468 397.26C466.868 397.599 468.416 397.407 469.699 397.996C472.146 399.16 472.515 402.415 473.384 404.949C475.78 411.776 483.918 415.349 491.075 414.325C498.233 413.301 504.402 408.654 509.245 403.277C510.565 401.804 511.869 400.243 513.668 399.366C515.107 398.727 516.663 398.396 518.238 398.394C523.465 398.18 528.658 399.33 533.305 401.73C537.632 403.94 541.413 407.217 545.961 408.941C554.961 412.344 565.023 409.11 573.839 405.258L531.676 388.458Z" fill="black"/>
<path d="M411.201 298.17C411.201 280.059 392.11 265.387 368.552 265.387C344.993 265.387 325.902 280.044 325.902 298.17C302.314 298.17 283.252 312.841 283.252 330.952C283.252 349.063 302.344 363.727 325.902 363.727C333.241 363.758 340.506 362.253 347.227 359.307C353.962 362.208 361.218 363.705 368.552 363.705C375.885 363.705 383.142 362.208 389.877 359.307C396.598 362.253 403.862 363.758 411.201 363.727C434.789 363.727 453.851 349.055 453.851 330.952C453.851 312.848 434.76 298.17 411.201 298.17Z" fill="#40513B"/>
<path opacity="0.1" d="M411.201 298.17C411.201 280.059 392.11 265.387 368.552 265.387C344.993 265.387 325.902 280.044 325.902 298.17C302.314 298.17 283.252 312.841 283.252 330.952C283.252 349.063 302.344 363.727 325.902 363.727C333.241 363.758 340.506 362.253 347.227 359.307C353.962 362.208 361.218 363.705 368.552 363.705C375.885 363.705 383.142 362.208 389.877 359.307C396.598 362.253 403.862 363.758 411.201 363.727C434.789 363.727 453.851 349.055 453.851 330.952C453.851 312.848 434.76 298.17 411.201 298.17Z" fill="black"/>
<path d="M502.67 483.321L478.22 472.075C476.259 471.169 474.085 470.042 473.473 467.965C473.256 466.841 473.256 465.686 473.473 464.562C474.062 458.718 472.79 452.836 469.839 447.755C468.004 444.61 465.52 441.782 464.421 438.306C462.077 430.941 466.633 423.141 466.854 415.378C467.097 407.822 463.168 400.552 457.574 395.433C455.915 393.909 454.094 392.487 452.79 390.683C449.001 385.365 450.578 378.162 452.377 371.806L452.841 371.379C453.188 371.04 452.93 369.589 452.296 367.439C459.363 365.556 466.026 362.395 471.955 358.114C473.834 356.752 475.64 355.257 477.852 354.388C480.889 353.172 484.331 353.312 487.397 352.178C493.117 350.05 496.294 344.076 498.955 338.597C505.258 325.642 511.671 312.252 512.467 297.868C507.292 293.868 501.003 291.572 494.466 291.298C493.375 291.254 492.137 291.298 491.422 292.152C491.02 292.694 490.766 293.331 490.685 294.001C488.452 304.267 484.598 314.112 479.267 323.167C477.136 326.971 474.522 330.484 471.49 333.618C467.805 337.301 463.279 340.048 458.827 342.78C455.082 345.071 450.07 347.302 445.817 349.932C442.868 342.36 440.178 335.452 440.524 334.391C444.226 322.84 444.37 310.444 440.937 298.81C440.082 295.923 438.991 293.073 438.725 290.068C438.46 287.063 439.057 284.102 439.293 281.112C439.757 275.183 438.851 269.239 438.888 263.288C438.932 255.231 440.701 247.291 442.463 239.425C437.563 238.55 432.575 238.283 427.61 238.63C426.631 238.634 425.669 238.887 424.816 239.367C423.578 240.169 423.113 241.716 422.693 243.13C419.413 254.111 413.464 264.135 409.934 275.043C406.403 285.951 405.644 298.729 412.211 308.127C414.548 311.464 417.813 314.483 418.329 318.519C418.602 320.655 418.042 322.799 417.482 324.883C416.487 328.617 432.497 368.742 433.389 372.447C433.389 372.55 433.448 372.638 433.47 372.734C432.969 372.845 432.46 372.94 431.951 373.058C431.275 383.493 427.236 393.428 420.438 401.377C419.535 398.812 418.895 396.161 418.528 393.467C417.976 389.416 418.027 385.24 416.767 381.351C414.88 375.548 410.324 371.099 406.344 366.481C399.177 358.146 393.517 348.628 389.619 338.354C386.614 339.468 383.535 340.371 380.405 341.057C378.746 341.425 373.033 341.432 372.134 342.913C370.748 345.122 376.94 355.397 378.164 357.761C382.476 366.076 389.744 372.572 394.012 380.909C395.792 384.61 397.263 388.45 398.412 392.392C400.742 399.757 403.071 407.122 404.855 414.605C402.717 416.814 401.029 419.51 399.194 422.022C392.685 430.87 384.071 437.958 374.132 442.644C372.945 443.204 371.633 443.83 371.124 445.038C371.038 445.244 370.974 445.459 370.933 445.678C366.879 442.821 363.09 439.632 360.451 435.478C359.286 433.636 358.365 431.64 357.097 429.873C352.829 423.929 345.362 421.418 339.251 417.352C336.671 415.643 334.268 413.618 331.416 412.417C328.283 411.092 324.819 410.841 321.428 410.613C318.649 410.421 307.99 408.205 306.619 410.687C304.673 414.2 310.843 419.333 313.312 420.571C317.418 422.625 322.113 423.148 326.403 424.776C330.281 426.368 333.882 428.566 337.07 431.287C338.463 432.313 339.682 433.557 340.681 434.969C341.743 436.627 342.237 438.578 343.129 440.331C345.989 445.951 352.173 448.521 357.709 451.828C356.24 451.892 354.794 452.219 353.441 452.793C349.32 454.664 347.404 459.296 344.721 462.942C342.325 466.175 339.17 468.761 336.531 471.78C333.893 474.8 331.696 478.578 331.895 482.592C332.02 485.133 333.045 487.91 331.696 490.068C334.799 491.408 338.617 493.014 341.979 493.419C345.34 493.824 348.981 493.183 351.495 490.922C352.273 490.092 353.108 489.317 353.994 488.602C356.124 487.181 359.043 487.578 361.321 488.742C363.598 489.906 365.478 491.725 367.564 493.22C370.543 495.327 373.937 496.775 377.52 497.468C381.104 498.16 384.793 498.08 388.343 497.234C389.818 496.881 391.933 496.579 391.476 495.165C388.356 493.709 385.7 491.42 383.802 488.55C381.904 485.68 380.838 482.341 380.722 478.902C383.043 478.46 385.441 478.656 387.658 479.471C389.876 480.286 391.83 481.688 393.312 483.528C391.262 483.616 389.906 486.371 391.1 488.05C395.004 487.972 398.833 486.961 402.265 485.1C405.697 483.239 408.632 480.584 410.826 477.356C412.435 476.697 414.184 476.455 415.912 476.652C417.64 476.85 419.29 477.481 420.708 478.486C422.127 479.491 423.268 480.838 424.026 482.402C424.784 483.966 425.135 485.696 425.045 487.431L435.703 492.69C437.377 493.515 439.153 494.362 441.018 494.237C442.883 494.111 444.785 492.609 444.644 490.753C444.482 488.624 441.925 486.452 443.325 484.861C445.831 485.98 447.748 488.19 450.32 489.155C452.893 490.119 456.682 488.831 456.542 486.091C456.428 485.178 456.074 484.311 455.517 483.579C452.635 479.192 448.804 475.507 444.305 472.797C443.974 470.388 449.465 467.744 451.131 469.541L464.635 484.411C465.686 485.691 466.929 486.799 468.321 487.696C473.149 490.488 479.178 487.696 484.751 487.696C490.781 487.696 496.95 491.128 502.56 488.941C504.034 488.374 505.508 486.982 505.088 485.465C504.756 484.375 503.658 483.808 502.67 483.321Z" fill="#3F3D56"/>
<path d="M539.158 206.26C539.16 202.587 538.486 198.944 537.167 195.515C543.859 193.143 549.496 188.486 553.084 182.365C556.672 176.244 557.981 169.053 556.778 162.062C555.575 155.071 551.939 148.729 546.511 144.157C541.083 139.584 534.213 137.075 527.113 137.072C527.106 129.708 524.395 122.603 519.496 117.102C514.596 111.6 507.847 108.086 500.528 107.223C493.208 106.361 485.827 108.211 479.781 112.423C473.735 116.634 469.445 122.915 467.724 130.075C467.451 130.075 467.178 130.075 466.898 130.075C466.931 122.562 464.149 115.307 459.098 109.74C454.047 104.173 447.094 100.697 439.607 99.9949C432.119 99.2929 424.64 101.416 418.641 105.948C412.642 110.479 408.558 117.089 407.191 124.478C402.751 120.991 397.418 118.823 391.803 118.221C386.188 117.619 380.516 118.609 375.437 121.075C370.358 123.542 366.075 127.387 363.08 132.171C360.084 136.955 358.496 142.484 358.497 148.127C352.017 148.131 345.712 150.224 340.517 154.095C335.323 157.966 331.517 163.408 329.665 169.613C327.814 175.818 328.016 182.454 330.241 188.535C332.466 194.616 336.595 199.817 342.015 203.366C341.632 205.307 341.437 207.28 341.433 209.258C336.812 209.254 332.253 210.313 328.107 212.352C323.961 214.392 320.341 217.357 317.527 221.019C314.712 224.68 312.779 228.94 311.876 233.468C310.974 237.997 311.126 242.672 312.322 247.131C313.518 251.591 315.725 255.716 318.773 259.186C321.82 262.657 325.626 265.38 329.896 267.146C334.166 268.911 338.785 269.67 343.396 269.365C348.007 269.06 352.485 267.699 356.485 265.388C361.061 268.032 366.254 269.424 371.541 269.424C376.827 269.424 382.02 268.032 386.596 265.388C392.172 268.61 398.637 269.957 405.037 269.232C411.437 268.507 417.435 265.747 422.148 261.359C422.671 261.359 423.194 261.396 423.725 261.396C429.01 261.4 434.202 260.011 438.777 257.367C445.516 261.268 453.507 262.403 461.067 260.534C465.781 264.017 471.411 266.048 477.265 266.378C483.118 266.708 488.941 265.322 494.017 262.39C498.592 265.034 503.783 266.425 509.069 266.425C514.354 266.425 519.545 265.034 524.12 262.39C528.119 264.696 532.595 266.053 537.202 266.354C541.81 266.656 546.424 265.895 550.69 264.129C554.956 262.364 558.758 259.642 561.802 256.174C564.847 252.705 567.052 248.584 568.248 244.128C569.443 239.672 569.597 235.001 568.697 230.476C567.797 225.951 565.867 221.694 563.057 218.034C560.248 214.373 556.633 211.407 552.492 209.366C548.352 207.324 543.797 206.262 539.18 206.26H539.158ZM401.67 209.273C401.667 207.98 401.581 206.688 401.412 205.406C402.15 205.038 402.946 204.669 403.675 204.235C404.884 204.927 406.137 205.538 407.427 206.061C405.939 207.02 404.538 208.107 403.24 209.309C402.725 209.287 402.194 209.273 401.67 209.273Z" fill="#40513B"/>
<path d="M641.513 372.712C641.513 356.104 626.24 342.633 607.392 342.633C588.544 342.633 573.278 356.104 573.278 372.712C554.43 372.712 539.157 386.183 539.157 402.798C539.157 419.414 554.43 432.878 573.278 432.878C579.205 432.893 585.051 431.502 590.335 428.819C595.63 431.473 601.472 432.855 607.396 432.855C613.32 432.855 619.162 431.473 624.456 428.819C629.743 431.494 635.588 432.877 641.513 432.856C660.361 432.856 675.635 419.392 675.635 402.776C675.635 386.161 660.361 372.712 641.513 372.712Z" fill="#40513B"/>
<path d="M539.158 311.552C539.22 307.562 538.488 303.599 537.003 299.895C535.518 296.19 533.31 292.818 530.508 289.974C527.706 287.13 524.366 284.872 520.682 283.33C516.998 281.789 513.044 280.995 509.05 280.995C505.056 280.995 501.102 281.789 497.418 283.33C493.735 284.872 490.394 287.13 487.592 289.974C484.791 292.818 482.583 296.19 481.098 299.895C479.613 303.599 478.88 307.562 478.943 311.552C474.326 311.554 469.773 312.617 465.633 314.659C461.494 316.7 457.88 319.666 455.07 323.326C452.261 326.986 450.332 331.242 449.431 335.766C448.531 340.29 448.684 344.96 449.879 349.415C451.074 353.871 453.278 357.992 456.321 361.46C459.364 364.928 463.164 367.651 467.429 369.417C471.693 371.184 476.307 371.947 480.913 371.647C485.52 371.347 489.996 369.993 493.995 367.689C498.571 370.328 503.762 371.718 509.047 371.718C514.331 371.718 519.522 370.328 524.099 367.689C528.097 369.995 532.573 371.352 537.18 371.653C541.788 371.955 546.403 371.194 550.668 369.428C554.934 367.663 558.736 364.941 561.78 361.473C564.825 358.005 567.03 353.883 568.226 349.427C569.421 344.971 569.575 340.3 568.675 335.775C567.775 331.251 565.845 326.993 563.035 323.333C560.226 319.672 556.611 316.706 552.47 314.665C548.33 312.623 543.775 311.561 539.158 311.559V311.552Z" fill="#40513B"/>
<path d="M407.692 299.517C407.692 282.902 390.164 269.438 368.551 269.438C346.939 269.438 329.41 282.902 329.41 299.517C307.798 299.517 290.277 312.988 290.277 329.597C290.277 346.205 307.798 359.683 329.41 359.683C336.145 359.719 342.812 358.344 348.981 355.647C355.161 358.309 361.821 359.683 368.551 359.683C375.282 359.683 381.941 358.309 388.122 355.647C394.291 358.344 400.958 359.719 407.692 359.683C429.305 359.683 446.826 346.212 446.826 329.597C446.826 312.981 429.305 299.517 407.692 299.517Z" fill="#40513B"/>
<path d="M334.431 387.759C334.495 383.504 333.712 379.279 332.127 375.33C330.542 371.381 328.187 367.786 325.199 364.754C322.211 361.723 318.649 359.315 314.721 357.672C310.792 356.029 306.577 355.183 302.318 355.183C298.06 355.183 293.844 356.029 289.915 357.672C285.987 359.315 282.425 361.723 279.437 364.754C276.449 367.786 274.094 371.381 272.509 375.33C270.924 379.279 270.141 383.504 270.205 387.759C265.278 387.756 260.415 388.886 255.994 391.061C251.574 393.237 247.713 396.4 244.712 400.305C241.711 404.211 239.65 408.754 238.687 413.583C237.725 418.412 237.888 423.397 239.164 428.154C240.439 432.91 242.792 437.309 246.042 441.01C249.292 444.712 253.35 447.616 257.904 449.499C262.457 451.382 267.383 452.193 272.3 451.869C277.217 451.545 281.994 450.094 286.26 447.63C291.142 450.448 296.68 451.931 302.318 451.931C307.956 451.931 313.494 450.448 318.376 447.63C322.641 450.089 327.416 451.535 332.33 451.856C337.244 452.176 342.166 451.363 346.715 449.48C351.264 447.596 355.319 444.692 358.565 440.993C361.812 437.293 364.163 432.897 365.438 428.144C366.712 423.392 366.876 418.41 365.915 413.584C364.955 408.758 362.896 404.217 359.899 400.314C356.901 396.41 353.046 393.247 348.629 391.07C344.213 388.893 339.355 387.76 334.431 387.759Z" fill="#40513B"/>
<path opacity="0.1" d="M334.431 387.759C334.495 383.504 333.712 379.279 332.127 375.33C330.542 371.381 328.187 367.786 325.199 364.754C322.211 361.723 318.649 359.315 314.721 357.672C310.792 356.029 306.577 355.183 302.318 355.183C298.06 355.183 293.844 356.029 289.915 357.672C285.987 359.315 282.425 361.723 279.437 364.754C276.449 367.786 274.094 371.381 272.509 375.33C270.924 379.279 270.141 383.504 270.205 387.759C265.278 387.756 260.415 388.886 255.994 391.061C251.574 393.237 247.713 396.4 244.712 400.305C241.711 404.211 239.65 408.754 238.687 413.583C237.725 418.412 237.888 423.397 239.164 428.154C240.439 432.91 242.792 437.309 246.042 441.01C249.292 444.712 253.35 447.616 257.904 449.499C262.457 451.382 267.383 452.193 272.3 451.869C277.217 451.545 281.994 450.094 286.26 447.63C291.142 450.448 296.68 451.931 302.318 451.931C307.956 451.931 313.494 450.448 318.376 447.63C322.641 450.089 327.416 451.535 332.33 451.856C337.244 452.176 342.166 451.363 346.715 449.48C351.264 447.596 355.319 444.692 358.565 440.993C361.812 437.293 364.163 432.897 365.438 428.144C366.712 423.392 366.876 418.41 365.915 413.584C364.955 408.758 362.896 404.217 359.899 400.314C356.901 396.41 353.046 393.247 348.629 391.07C344.213 388.893 339.355 387.76 334.431 387.759Z" fill="black"/>
<path d="M332.426 388.76C332.488 384.77 331.755 380.808 330.27 377.103C328.785 373.399 326.578 370.026 323.776 367.182C320.974 364.339 317.634 362.08 313.95 360.539C310.266 358.997 306.312 358.203 302.318 358.203C298.324 358.203 294.37 358.997 290.686 360.539C287.002 362.08 283.662 364.339 280.86 367.182C278.058 370.026 275.85 373.399 274.365 377.103C272.88 380.808 272.148 384.77 272.21 388.76C267.593 388.761 263.038 389.822 258.896 391.863C254.755 393.904 251.14 396.869 248.329 400.529C245.518 404.19 243.588 408.447 242.687 412.972C241.786 417.497 241.939 422.168 243.134 426.624C244.329 431.081 246.534 435.203 249.579 438.672C252.623 442.14 256.425 444.863 260.691 446.629C264.957 448.394 269.572 449.156 274.179 448.854C278.787 448.553 283.263 447.196 287.262 444.89C291.84 447.529 297.033 448.919 302.318 448.919C307.603 448.919 312.796 447.529 317.374 444.89C321.373 447.196 325.849 448.553 330.456 448.854C335.064 449.156 339.679 448.394 343.945 446.629C348.211 444.863 352.013 442.14 355.057 438.672C358.102 435.203 360.307 431.081 361.502 426.624C362.697 422.168 362.85 417.497 361.949 412.972C361.048 408.447 359.118 404.19 356.307 400.529C353.496 396.869 349.881 393.904 345.739 391.863C341.598 389.822 337.043 388.761 332.426 388.76Z" fill="#40513B"/>
<path opacity="0.1" d="M426.754 144.091C433.773 144.091 440.555 146.625 445.852 151.227C451.148 155.829 454.601 162.188 455.576 169.133C456.151 165.171 455.901 161.134 454.843 157.273C453.784 153.413 451.939 149.812 449.423 146.697C446.907 143.582 443.775 141.019 440.222 139.17C436.669 137.32 432.772 136.224 428.775 135.949C424.779 135.674 420.768 136.226 416.995 137.571C413.222 138.917 409.767 141.026 406.848 143.767C403.928 146.508 401.607 149.822 400.028 153.501C398.45 157.18 397.649 161.145 397.675 165.148C397.678 166.491 397.772 167.832 397.955 169.162C398.924 162.216 402.372 155.854 407.664 151.247C412.956 146.64 419.735 144.099 426.754 144.091Z" fill="black"/>
<path opacity="0.1" d="M486.512 196.008C492.895 198.936 498.003 204.072 500.893 210.467C503.784 216.863 504.263 224.087 502.242 230.808C504.39 227.448 505.822 223.682 506.451 219.745C507.08 215.808 506.893 211.784 505.899 207.923C504.906 204.062 503.129 200.446 500.678 197.3C498.227 194.154 495.155 191.545 491.652 189.636C488.15 187.726 484.292 186.557 480.318 186.2C476.344 185.843 472.339 186.307 468.552 187.562C464.765 188.817 461.276 190.837 458.303 193.496C455.331 196.155 452.937 199.397 451.271 203.019C450.714 204.24 450.241 205.498 449.855 206.783C453.636 200.87 459.429 196.523 466.166 194.542C472.903 192.562 480.129 193.082 486.512 196.008Z" fill="black"/>
<path opacity="0.1" d="M401.213 218.067C407.596 220.995 412.704 226.131 415.594 232.526C418.485 238.922 418.964 246.146 416.944 252.867C417.665 251.735 418.311 250.556 418.875 249.339C422.051 242.337 422.324 234.363 419.632 227.16C416.94 219.958 411.503 214.115 404.51 210.907C397.517 207.7 389.538 207.391 382.317 210.046C375.096 212.702 369.222 218.106 365.979 225.078C365.422 226.299 364.95 227.556 364.564 228.842C368.344 222.93 374.136 218.584 380.871 216.604C387.607 214.624 394.831 215.143 401.213 218.067Z" fill="black"/>
<path opacity="0.1" d="M370.918 311.22C374.079 313.993 376.131 317.814 376.694 321.979C377.258 326.143 376.295 330.371 373.984 333.883C374.595 333.358 375.168 332.792 375.702 332.189C378.751 328.716 380.294 324.175 379.992 319.565C379.69 314.955 377.567 310.654 374.091 307.608C372.37 306.1 370.368 304.945 368.201 304.209C366.033 303.474 363.741 303.172 361.457 303.322C356.843 303.623 352.539 305.744 349.49 309.217C348.954 309.822 348.461 310.465 348.016 311.139C351.199 308.388 355.272 306.88 359.482 306.895C363.692 306.91 367.754 308.446 370.918 311.22Z" fill="black"/>
<path opacity="0.1" d="M644.882 391.441C648.044 394.21 650.096 398.028 650.661 402.19C651.226 406.353 650.265 410.579 647.956 414.089C648.564 413.564 649.135 412.998 649.666 412.395C651.175 410.676 652.331 408.676 653.066 406.511C653.802 404.346 654.104 402.057 653.954 399.775C653.805 397.493 653.207 395.263 652.195 393.212C651.183 391.161 649.776 389.329 648.055 387.821C646.335 386.313 644.334 385.159 642.167 384.424C640 383.689 637.709 383.387 635.425 383.537C633.141 383.686 630.909 384.283 628.857 385.295C626.804 386.306 624.971 387.711 623.462 389.431C622.925 390.033 622.433 390.673 621.987 391.346C625.172 388.596 629.244 387.092 633.453 387.109C637.661 387.127 641.721 388.666 644.882 391.441Z" fill="black"/>
<path opacity="0.1" d="M303.273 391.191C306.642 388.665 310.813 387.444 315.015 387.754C319.216 388.064 323.162 389.884 326.123 392.878C325.737 392.172 325.301 391.495 324.819 390.852C322.015 387.249 317.907 384.89 313.38 384.281C308.852 383.673 304.267 384.865 300.61 387.6C296.953 390.335 294.517 394.395 293.825 398.907C293.133 403.419 294.242 408.021 296.911 411.725C297.393 412.366 297.918 412.974 298.481 413.544C296.448 409.867 295.813 405.58 296.694 401.472C297.574 397.365 299.911 393.713 303.273 391.191Z" fill="black"/>
<path opacity="0.1" d="M505.987 326.01C509.358 323.485 513.528 322.265 517.729 322.575C521.93 322.885 525.876 324.704 528.838 327.696C528.451 326.991 528.015 326.315 527.533 325.671C526.18 323.793 524.465 322.203 522.489 320.995C520.514 319.787 518.317 318.984 516.028 318.633C513.738 318.283 511.402 318.392 509.155 318.954C506.908 319.516 504.795 320.52 502.941 321.907C501.087 323.294 499.528 325.036 498.355 327.031C497.182 329.027 496.419 331.236 496.111 333.53C495.802 335.824 495.954 338.156 496.557 340.39C497.161 342.625 498.204 344.717 499.626 346.544C500.108 347.189 500.635 347.799 501.204 348.37C499.169 344.693 498.533 340.405 499.412 336.296C500.291 332.187 502.626 328.534 505.987 326.01Z" fill="black"/>
<path d="M474.372 456.358C472.441 454.885 472.684 451.327 472.684 451.327C472.684 451.327 476.053 450.208 477.984 451.703C479.915 453.198 480.667 455.459 479.672 456.741C478.677 458.022 476.303 457.86 474.372 456.358Z" fill="#40513B"/>
<path d="M481.006 495.393C479.075 493.92 479.318 490.362 479.318 490.362C479.318 490.362 482.687 489.243 484.618 490.738C486.55 492.233 487.301 494.494 486.306 495.776C485.311 497.057 482.938 496.895 481.006 495.393Z" fill="#40513B"/>
<path d="M474.372 499.075C472.441 497.602 472.684 494.045 472.684 494.045C472.684 494.045 476.053 492.925 477.984 494.421C479.915 495.916 480.667 498.177 479.672 499.458C478.677 500.74 476.303 500.578 474.372 499.075Z" fill="#40513B"/>
<path d="M520.074 470.351C518.143 468.878 518.386 465.321 518.386 465.321C518.386 465.321 521.754 464.201 523.686 465.697C525.617 467.192 526.369 469.453 525.374 470.734C524.379 472.016 522.005 471.854 520.074 470.351Z" fill="#40513B"/>
<path d="M330.133 356.457C331.644 354.542 335.19 354.822 335.19 354.822C335.19 354.822 336.266 358.202 334.747 360.117C333.229 362.032 330.966 362.762 329.691 361.752C328.416 360.743 328.615 358.372 330.133 356.457Z" fill="#40513B"/>
<path opacity="0.1" d="M352.342 214.671C362.52 214.671 370.77 206.427 370.77 196.258C370.77 186.089 362.52 177.845 352.342 177.845C342.165 177.845 333.915 186.089 333.915 196.258C333.915 206.427 342.165 214.671 352.342 214.671Z" fill="#40513B"/>
<path opacity="0.3" d="M113.147 509.711C113.403 509.034 113.821 508.43 114.365 507.952C114.908 507.475 115.561 507.138 116.265 506.971C117.017 506.801 117.788 506.73 118.558 506.757C123.224 506.838 126.762 508.967 131.023 509.946C135.091 510.911 139.728 510.86 144.187 510.786C146.986 510.83 149.782 510.608 152.539 510.123C156.999 509.18 159.91 506.956 162.623 504.85" fill="#40513B"/>
<path opacity="0.3" d="M633.553 502.345C633.808 501.669 634.226 501.065 634.77 500.587C635.314 500.109 635.966 499.772 636.671 499.606C637.423 499.436 638.193 499.364 638.963 499.392C643.629 499.473 647.167 501.602 651.428 502.581C655.497 503.546 660.133 503.494 664.593 503.421C667.391 503.465 670.188 503.243 672.944 502.758C677.367 501.815 680.315 499.591 683.028 497.484" fill="#40513B"/>
<path opacity="0.3" d="M674.832 518.549C675.088 517.872 675.506 517.268 676.049 516.79C676.593 516.313 677.246 515.976 677.95 515.809C678.702 515.639 679.472 515.568 680.242 515.595C684.908 515.676 688.447 517.805 692.707 518.784C696.776 519.749 701.412 519.698 705.872 519.624C708.671 519.668 711.467 519.446 714.224 518.961C718.646 518.018 721.595 515.794 724.307 513.688" fill="#40513B"/>
<path opacity="0.3" d="M640.188 514.903C640.308 514.702 640.473 514.531 640.67 514.403C640.867 514.276 641.09 514.195 641.323 514.166C641.6 514.116 641.882 514.097 642.163 514.107C643.866 514.107 645.156 514.719 646.711 515.006C648.302 515.237 649.911 515.319 651.517 515.249C652.535 515.261 653.553 515.197 654.561 515.058C655.879 514.829 657.135 514.327 658.247 513.585" fill="#40513B"/>
<path opacity="0.3" d="M647.559 506.801C647.679 506.6 647.844 506.43 648.041 506.302C648.238 506.174 648.461 506.093 648.694 506.065C648.971 506.015 649.253 505.995 649.534 506.006C651.237 506.006 652.527 506.617 654.082 506.904C655.673 507.136 657.282 507.217 658.888 507.148C659.906 507.159 660.924 507.095 661.932 506.956C663.25 506.727 664.506 506.226 665.618 505.483" fill="#40513B"/>
<path opacity="0.3" d="M187.597 493.632C187.727 493.429 187.901 493.257 188.107 493.13C188.312 493.002 188.543 492.923 188.783 492.896C189.071 492.852 189.362 492.835 189.653 492.844C191.422 492.844 192.771 493.404 194.386 493.669C196.045 493.878 197.719 493.952 199.391 493.89C200.45 493.9 201.509 493.841 202.56 493.713C203.914 493.508 205.216 493.043 206.393 492.344" fill="#40513B"/>
<path opacity="0.3" d="M166.22 494.369C166.351 494.166 166.525 493.994 166.73 493.866C166.935 493.739 167.167 493.659 167.407 493.632C167.695 493.589 167.986 493.571 168.277 493.581C170.046 493.581 171.395 494.141 173.009 494.406C174.669 494.615 176.343 494.689 178.014 494.627C179.073 494.636 180.132 494.577 181.184 494.45C182.538 494.245 183.839 493.779 185.017 493.08" fill="#40513B"/>
<path opacity="0.3" d="M156.638 524.441C156.893 523.764 157.311 523.16 157.855 522.683C158.399 522.205 159.051 521.868 159.756 521.701C160.507 521.532 161.278 521.46 162.048 521.487C166.714 521.568 170.252 523.697 174.513 524.677C178.582 525.641 183.218 525.59 187.678 525.516C190.476 525.56 193.273 525.338 196.029 524.853C200.489 523.911 203.4 521.686 206.113 519.58" fill="#40513B"/>
<path d="M583.082 483.211C582.985 483.478 582.967 483.767 583.031 484.043C583.2 484.596 583.879 484.78 584.461 484.853C585.799 484.977 587.143 485.009 588.485 484.949L600.633 484.713C600.821 484.729 601.009 484.693 601.179 484.61C601.333 484.497 601.457 484.348 601.54 484.176C602.366 482.655 602.901 480.994 603.117 479.278C603.17 479.032 603.152 478.777 603.066 478.541C602.873 478.24 602.572 478.024 602.225 477.937C600.505 477.286 598.751 476.731 596.97 476.273C595.805 476.015 594.657 475.683 593.535 475.279C592.061 474.704 590.586 473.401 589.112 473.128C587.793 472.9 587.579 473.916 587.159 474.947C585.987 477.805 583.915 480.221 583.082 483.211Z" fill="#FABDBD"/>
<path d="M628.621 499.841C628.319 498.435 627.073 497.448 625.887 496.615C624.7 495.783 623.425 494.943 622.164 494.17C624.219 493.05 626.111 491.655 627.788 490.024C628.806 489.16 629.685 488.147 630.398 487.019C631.109 485.877 631.339 484.5 631.039 483.189C630.778 482.435 630.351 481.75 629.788 481.185C629.225 480.62 628.541 480.19 627.788 479.926C626.28 479.403 624.697 479.125 623.1 479.101C621.958 479.027 620.808 478.961 619.665 478.91C620.382 478.774 621.09 478.599 621.788 478.387C624.365 477.541 626.838 476.407 629.159 475.006C629.554 474.84 629.912 474.598 630.213 474.293C630.515 473.989 630.752 473.628 630.914 473.231C630.984 472.84 630.94 472.436 630.787 472.069C630.634 471.702 630.379 471.387 630.051 471.161C629.402 470.706 628.633 470.45 627.84 470.425C626.758 470.371 625.676 470.539 624.662 470.919C623.648 471.299 622.722 471.883 621.943 472.634C621.447 473.191 620.885 473.686 620.27 474.108C619.908 474.361 619.462 474.462 619.027 474.39C618.592 474.319 618.202 474.08 617.94 473.725C617.773 473.398 617.685 473.038 617.682 472.671L617.727 472.634C618.642 471.798 619.339 470.751 619.756 469.584C620.174 468.417 620.299 467.166 620.122 465.94C619.797 464.076 619.183 462.274 618.302 460.6C619.558 460.145 620.869 459.86 622.201 459.753C622.562 459.748 622.921 459.686 623.262 459.569C623.594 459.391 623.881 459.141 624.102 458.838C624.324 458.534 624.476 458.185 624.545 457.816C624.683 457.093 624.89 456.385 625.164 455.702C626.756 456.711 628.662 457.102 630.523 456.802C632.383 456.503 634.069 455.532 635.263 454.074C636.694 454.139 638.116 453.821 639.383 453.154C640.894 452.27 642.258 450.127 641.359 448.381C640.989 447.854 640.55 447.378 640.054 446.967C639.442 446.227 638.972 445.381 638.668 444.47C637.054 440.412 633.619 438.829 629.439 438.195C627.566 437.859 625.652 437.81 623.764 438.048C622.317 438.315 620.899 438.725 619.533 439.27L618.869 439.521C618.818 438.424 618.641 437.311 618.596 436.45C618.548 436.088 618.586 435.719 618.707 435.374C619.039 434.831 619.566 434.435 620.181 434.27L628.503 430.72C629.385 430.312 630.3 429.98 631.238 429.725C633.958 429.077 636.995 429.725 639.472 428.444C640.187 428.068 640.814 427.546 641.313 426.911C641.813 426.277 642.172 425.544 642.369 424.761C642.649 423.634 642.464 422.242 641.462 421.646C640.459 421.049 639.074 421.557 637.99 422.102C634.474 423.99 630.828 425.627 627.081 427C623.498 428.208 619.71 428.93 616.37 430.683C615.765 430.964 615.207 431.339 614.719 431.795C614.211 432.366 613.793 433.012 613.481 433.71L612.176 436.185C611.152 438.188 610.134 440.545 610.967 442.592C610.842 442.731 610.731 442.881 610.636 443.041C610.26 443.645 610.437 444.433 610.12 444.964C609.803 445.494 608.594 446.017 608.019 446.437C607.223 446.974 606.449 447.549 605.69 448.138C602.757 450.482 600.07 453.118 597.67 456.004C594.105 460.389 590.8 464.978 587.77 469.747C587.173 470.55 586.708 471.443 586.392 472.391C586.158 473.266 586.183 474.19 586.465 475.05C585.264 477.672 583.392 479.97 582.603 482.769L582.124 482.85C581.239 485.398 581.807 488.337 582.271 491.003C582.529 492.52 582.89 494.177 584.136 495.105C584.81 495.539 585.561 495.842 586.348 495.997C587.239 496.232 588.058 496.468 588.861 496.733H588.758C587.733 496.637 586.547 496.733 585.935 497.529C585.653 497.974 585.476 498.478 585.419 499.002L583.495 509.836C583.268 510.629 583.306 511.475 583.605 512.244C584.022 512.882 584.639 513.364 585.36 513.614C586.66 514.183 588.035 514.563 589.443 514.741C590.026 514.852 590.627 514.814 591.19 514.63C591.466 514.53 591.703 514.345 591.866 514.101C592.029 513.858 592.11 513.568 592.097 513.275C591.979 512.45 590.955 512.06 590.623 511.309C590.144 510.329 590.925 509.239 591.655 508.436C591.765 508.311 591.891 508.186 592.023 508.053C592.313 508.894 592.707 509.696 593.195 510.44C593.366 510.757 593.626 511.018 593.942 511.191C594.259 511.364 594.619 511.44 594.979 511.412C596.689 511.029 598.409 510.666 600.139 510.322L600.471 510.462C603.308 511.654 606.236 512.617 609.228 513.342C609.788 513.511 610.379 513.561 610.96 513.489C611.245 513.44 611.51 513.309 611.721 513.111C611.932 512.913 612.08 512.658 612.147 512.377C612.228 511.684 611.631 511.11 611.056 510.697C609.968 509.94 608.776 509.342 607.518 508.922L613.134 507.899C615.001 507.497 616.902 507.278 618.81 507.243C621.272 507.287 623.97 507.869 625.975 506.426C627.096 505.461 627.893 504.175 628.26 502.743C628.645 501.827 628.77 500.823 628.621 499.841ZM609.228 478.644C608.358 478.644 607.378 478.644 606.382 478.644C606.486 477.908 606.537 477.171 606.64 476.435C606.65 476.208 606.73 475.989 606.869 475.809C607.056 475.643 607.291 475.543 607.54 475.522L611.041 474.837C611.119 474.553 611.138 474.257 611.098 473.965C611.057 473.674 610.958 473.394 610.805 473.143C611.074 473.338 611.363 473.503 611.668 473.636C611.621 475.076 611.872 476.51 612.405 477.849C612.52 478.16 612.712 478.437 612.965 478.652H613.009C611.749 478.659 610.488 478.644 609.228 478.644Z" fill="url(#paint0_linear_35_150)"/>
<path d="M622.673 479.455C624.234 479.473 625.782 479.741 627.258 480.25C627.994 480.511 628.661 480.936 629.208 481.492C629.756 482.048 630.17 482.722 630.42 483.461C630.711 484.757 630.484 486.116 629.786 487.247C629.083 488.35 628.222 489.342 627.228 490.193C625.376 492.045 623.223 493.569 620.86 494.7C619.695 495.209 618.464 495.555 617.329 496.114C614.904 497.308 613.039 499.377 611.248 501.403C609.465 503.226 607.948 505.291 606.744 507.538C606.655 507.707 606.559 507.906 606.375 507.965C606.201 507.992 606.023 507.955 605.874 507.862L600.714 505.424C600.563 505.387 600.423 505.311 600.311 505.203C600.199 505.095 600.118 504.958 600.076 504.808C600.033 504.658 600.032 504.5 600.072 504.349C600.112 504.198 600.191 504.061 600.301 503.951C602.822 499.223 606.287 495.062 610.481 491.725C608.687 492.696 606.686 493.224 604.647 493.266C602.607 493.309 600.586 492.863 598.753 491.968C598.025 491.646 597.394 491.138 596.925 490.495C596.011 489.088 596.572 487.217 597.264 485.685C597.888 484.33 598.6 483.016 599.395 481.752C601.289 478.733 605.911 479.005 609.095 478.998C613.606 479.023 618.132 479.175 622.673 479.455Z" fill="#434175"/>
<path opacity="0.1" d="M615.545 490.053C614.688 490.148 613.862 490.424 613.12 490.863C614.395 490.001 617.314 490.222 618.811 490.075C620.721 490.005 622.609 489.648 624.413 489.015C621.435 489.143 618.472 489.49 615.545 490.053Z" fill="black"/>
<path d="M591.832 508.503C591.095 509.298 590.358 510.373 590.815 511.338C591.168 512.075 592.171 512.458 592.289 513.275C592.303 513.564 592.223 513.849 592.063 514.089C591.902 514.329 591.669 514.511 591.397 514.608C590.849 514.795 590.262 514.835 589.694 514.726C588.318 514.555 586.974 514.183 585.706 513.621C585 513.382 584.397 512.909 583.996 512.281C583.707 511.522 583.671 510.69 583.893 509.909L585.795 499.134C585.846 498.61 586.02 498.105 586.303 497.661C586.908 496.866 588.065 496.777 589.06 496.873C590.178 496.978 591.278 497.226 592.333 497.61C593.068 497.811 593.717 498.245 594.183 498.847C594.559 499.614 594.686 500.479 594.544 501.322C594.456 502.64 594.677 504.555 594.191 505.785C593.793 506.787 592.54 507.707 591.832 508.503Z" fill="#F86D70"/>
<path d="M604.871 508.363C606.994 508.65 609.017 509.443 610.768 510.675C611.329 511.08 611.911 511.648 611.83 512.333C611.768 512.611 611.624 512.865 611.417 513.06C611.209 513.256 610.947 513.385 610.665 513.43C610.098 513.502 609.523 513.452 608.977 513.283C606.048 512.591 603.181 511.66 600.405 510.499C599.666 510.257 598.999 509.834 598.466 509.269C598.207 508.981 598.052 508.615 598.027 508.229C598.001 507.843 598.107 507.459 598.326 507.14C598.864 506.514 599.874 506.536 600.537 506.006C600.994 505.623 601.274 504.953 601.849 504.842C602.273 504.821 602.689 504.966 603.007 505.247C603.5 505.586 604.768 506.124 605.026 506.72C605.041 507.272 604.989 507.823 604.871 508.363Z" fill="#F86D70"/>
<path d="M582.633 483.24C586.179 482.629 589.739 482.018 593.329 481.767C595.982 481.576 598.857 481.649 600.98 483.24C601.614 483.712 602.152 484.301 602.749 484.816C604.754 486.555 607.341 487.424 609.818 488.381C615.315 490.528 620.531 493.335 625.349 496.74C626.506 497.551 627.723 498.523 628.018 499.908C628.145 500.88 628.01 501.869 627.627 502.773C627.279 504.195 626.508 505.479 625.416 506.455C623.484 507.877 620.809 507.309 618.406 507.28C616.541 507.318 614.684 507.538 612.862 507.935C606.921 509.033 600.987 510.145 595.098 511.478C594.745 511.51 594.392 511.436 594.082 511.265C593.772 511.094 593.52 510.835 593.358 510.521C592.189 508.665 591.561 506.52 591.545 504.327C591.532 502.143 591.817 499.967 592.393 497.86C590.373 497.322 588.751 496.792 586.732 496.254C585.97 496.1 585.244 495.803 584.594 495.378C583.385 494.472 583.031 492.83 582.781 491.335C582.301 488.654 581.763 485.766 582.633 483.24Z" fill="#434175"/>
<path opacity="0.1" d="M617.336 500.563C616.015 499.579 614.484 498.916 612.862 498.626C611.899 498.348 610.912 498.161 609.913 498.066C608.354 498.068 606.799 498.221 605.27 498.523C601.524 499.042 597.711 498.792 594.065 497.786" fill="black"/>
<path d="M643.253 414.546C643.253 414.546 626.977 486.724 627.825 488.801C628.673 490.878 633.936 501.322 624.353 534.376C624.277 535.094 623.929 535.755 623.381 536.224C622.833 536.694 622.126 536.937 621.405 536.903C618.714 536.903 609.368 534.17 609.368 534.17C608.997 533.786 608.729 533.315 608.587 532.8C608.446 532.286 608.435 531.744 608.557 531.224C608.889 529.28 612.242 497.543 624.213 486.989L639.088 413.964C639.088 413.964 641.078 412.454 643.253 414.546Z" fill="#AE6E79"/>
<path d="M639.383 409.493L644.005 410.281C644.481 410.36 644.924 410.578 645.278 410.907C645.632 411.235 645.881 411.661 645.995 412.13C646.312 413.5 646.113 415.253 643.047 415.312C638.034 415.408 639.081 413.979 639.081 413.979C639.081 413.979 636.612 413.979 636.457 412.064C636.431 411.688 636.493 411.312 636.637 410.964C636.78 410.616 637.002 410.306 637.285 410.057C637.568 409.809 637.904 409.628 638.268 409.531C638.632 409.433 639.014 409.42 639.383 409.493Z" fill="#AE6E79"/>
<path d="M620.233 449.375C619.4 449.363 618.579 449.181 617.819 448.842C617.058 448.503 616.375 448.013 615.81 447.402C615.588 447.139 615.321 446.917 615.021 446.746C614.744 446.646 614.448 446.613 614.155 446.65C613.863 446.687 613.584 446.793 613.341 446.96C611.668 447.917 610.938 450.038 611.129 451.946C611.454 453.852 612.258 455.643 613.466 457.153C614.363 458.414 615.348 459.61 616.415 460.732C616.989 460.001 617.703 459.391 618.516 458.937C619.328 458.483 620.222 458.195 621.147 458.088C622.805 457.904 624.331 456.615 625.57 455.511C626.484 454.671 627.044 454.87 626.742 453.669C626.362 452.491 625.845 451.361 625.201 450.303C624.861 449.681 624.594 449.021 624.405 448.337C624.206 447.542 624.405 447.114 623.668 447.505C623.174 447.762 622.798 448.499 622.245 448.808C621.627 449.15 620.938 449.344 620.233 449.375Z" fill="#FABDBD"/>
<path d="M618.383 437.407C618.338 437.05 618.376 436.687 618.494 436.346C618.813 435.818 619.317 435.426 619.909 435.249L628.017 431.721C628.879 431.318 629.775 430.99 630.693 430.742C633.347 430.094 636.317 430.742 638.743 429.453C639.443 429.08 640.057 428.566 640.546 427.941C641.035 427.317 641.387 426.598 641.58 425.829C641.853 424.724 641.676 423.354 640.703 422.765C639.73 422.176 638.374 422.684 637.305 423.229C633.878 425.094 630.324 426.716 626.669 428.083C623.167 429.291 619.474 430.013 616.194 431.714C615.602 431.995 615.057 432.368 614.58 432.819C614.084 433.387 613.674 434.024 613.364 434.711L612.125 437.164C611.071 439.234 610.017 441.686 611.042 443.793C611.185 444.12 611.399 444.411 611.668 444.647C611.936 444.882 612.254 445.056 612.597 445.155C613.09 445.227 613.593 445.192 614.071 445.052C615.339 444.787 617.455 444.78 618.155 443.498C619.069 441.863 618.472 439.131 618.383 437.407Z" fill="#FABDBD"/>
<path d="M619.917 474.572C620.519 474.147 621.068 473.653 621.553 473.099C622.315 472.368 623.217 471.8 624.206 471.429C625.194 471.058 626.248 470.892 627.302 470.941C628.091 470.946 628.861 471.184 629.514 471.626C629.834 471.85 630.082 472.162 630.23 472.524C630.377 472.885 630.418 473.282 630.347 473.666C630.191 474.057 629.959 474.414 629.664 474.715C629.369 475.015 629.018 475.255 628.629 475.419C626.355 476.809 623.929 477.936 621.398 478.777C618.859 479.615 616.151 479.808 613.518 479.337C613.256 479.298 613.006 479.205 612.781 479.064C612.536 478.853 612.35 478.582 612.243 478.276C611.344 476.162 611.506 473.776 611.698 471.493C611.617 472.318 616.533 471.67 616.968 472.038C617.609 472.576 617.263 473.592 617.661 474.247C617.923 474.581 618.304 474.8 618.724 474.861C619.144 474.921 619.571 474.817 619.917 474.572Z" fill="#FABDBD"/>
<path d="M628.783 457.565C632.907 457.565 636.25 454.225 636.25 450.105C636.25 445.984 632.907 442.644 628.783 442.644C624.66 442.644 621.316 445.984 621.316 450.105C621.316 454.225 624.66 457.565 628.783 457.565Z" fill="#FABDBD"/>
<path d="M612.53 442.357C613.962 441.922 615.473 441.811 616.953 442.032C617.176 441.994 617.404 442.002 617.624 442.057C617.844 442.111 618.05 442.211 618.229 442.35C618.408 442.488 618.556 442.663 618.663 442.862C618.771 443.061 618.836 443.28 618.854 443.505C619.105 444.326 619.222 445.181 619.201 446.039C619.188 446.468 619.074 446.888 618.868 447.264C618.662 447.64 618.369 447.963 618.014 448.204C617.469 448.536 616.798 448.587 616.238 448.904C615.867 449.147 615.558 449.473 615.337 449.857C615.115 450.241 614.987 450.671 614.962 451.114C614.912 451.995 615.022 452.878 615.287 453.721C615.858 455.867 616.597 457.966 617.498 459.996C618.427 462.11 619.555 464.201 619.827 466.499C619.997 467.712 619.872 468.948 619.461 470.102C619.05 471.256 618.367 472.294 617.469 473.128C616.545 473.93 615.387 474.411 614.167 474.5C612.948 474.589 611.732 474.281 610.702 473.621C610.85 473.868 610.946 474.142 610.985 474.427C611.025 474.711 611.006 475.001 610.93 475.279L607.503 475.971C607.384 475.969 607.266 475.991 607.157 476.036C607.047 476.081 606.948 476.148 606.865 476.233C606.782 476.318 606.717 476.419 606.675 476.529C606.632 476.64 606.613 476.758 606.618 476.877C606.536 478.156 606.328 479.424 605.999 480.663C605.833 481.284 605.506 481.851 605.052 482.307C604.598 482.763 604.033 483.093 603.412 483.262C602.247 483.483 601.105 482.902 600.043 482.371C597.565 481.146 594.976 480.159 592.311 479.425C590.958 479.164 589.669 478.644 588.515 477.893C587.79 477.311 587.248 476.533 586.954 475.651C586.659 474.77 586.626 473.822 586.856 472.922C587.17 471.985 587.627 471.103 588.212 470.307C591.186 465.597 594.43 461.062 597.928 456.726C600.276 453.874 602.909 451.268 605.785 448.948C606.522 448.359 607.26 447.799 608.063 447.262C608.631 446.871 609.773 446.429 610.12 445.84C610.466 445.251 610.26 444.537 610.628 443.933C611.078 443.218 611.744 442.666 612.53 442.357Z" fill="#F86D70"/>
<path d="M638.653 453.861C637.294 454.575 635.762 454.891 634.231 454.774C632.712 454.723 631.209 454.45 629.69 454.384C627.81 454.303 625.621 454.723 624.751 456.38C624.473 457.064 624.266 457.775 624.132 458.501C624.06 458.863 623.91 459.206 623.693 459.505C623.475 459.804 623.195 460.052 622.872 460.232C622.536 460.344 622.186 460.406 621.832 460.416C618.658 460.747 615.658 462.025 613.22 464.083C610.783 466.141 609.022 468.885 608.166 471.957C607.402 471.193 606.82 470.266 606.464 469.246C606.108 468.226 605.987 467.138 606.11 466.065C605.601 467.972 603.449 469.49 603.898 471.419C603.053 470.484 602.413 469.383 602.018 468.187C601.623 466.991 601.482 465.725 601.604 464.471C601.726 463.218 602.109 462.003 602.727 460.905C603.345 459.807 604.186 458.851 605.196 458.096C606.169 457.359 607.282 456.844 608.292 456.166C609.7 455.212 610.896 453.978 611.805 452.541C612.715 451.103 613.318 449.494 613.577 447.814C613.79 446.385 613.761 444.868 614.432 443.587C615.361 441.804 617.38 440.928 619.26 440.228C620.598 439.689 621.985 439.282 623.402 439.013C625.246 438.775 627.115 438.817 628.946 439.138C633.029 439.757 636.383 441.311 637.946 445.31C638.241 446.205 638.701 447.037 639.302 447.763C639.783 448.173 640.209 448.643 640.57 449.162C641.469 450.841 640.135 452.955 638.653 453.861Z" fill="#434175"/>
<path d="M200.865 537.602C200.865 537.602 262.163 509.026 285.243 519.049C308.322 529.073 362.529 527.07 362.529 527.07C362.529 527.07 458.856 523.093 469.913 527.07C480.97 531.047 581.306 531.084 586.318 527.07C591.331 523.056 648.539 520.051 657.576 527.07C663.113 531.349 669.183 534.889 675.635 537.602H200.865Z" fill="#E8EAF2"/>
<path opacity="0.3" d="M200.865 537.602C200.865 537.602 262.163 503.656 285.243 515.566C308.322 527.475 362.515 525.096 362.515 525.096C362.515 525.096 458.856 520.331 469.898 525.096C480.94 529.862 581.291 529.862 586.304 525.096C591.316 520.331 648.524 516.759 657.561 525.096C662.96 530.099 669.04 534.315 675.62 537.617L200.865 537.602Z" fill="#40513B"/>
</g>
<defs>
<filter id="filter0_d_35_150" x="-1" y="0" width="852" height="552" filterUnits="userSpaceOnUse" color-interpolation-filters="sRGB">
<feFlood flood-opacity="0" result="BackgroundImageFix"/>
<feColorMatrix in="SourceAlpha" type="matrix" values="0 0 0 0 0 0 0 0 0 0 0 0 0 0 0 0 0 0 127 0" result="hardAlpha"/>
<feOffset dx="3" dy="10"/>
<feGaussianBlur stdDeviation="2"/>
<feComposite in2="hardAlpha" operator="out"/>
<feColorMatrix type="matrix" values="0 0 0 0 0 0 0 0 0 0 0 0 0 0 0 0 0 0 0.25 0"/>
<feBlend mode="normal" in2="BackgroundImageFix" result="effect1_dropShadow_35_150"/>
<feBlend mode="normal" in="SourceGraphic" in2="effect1_dropShadow_35_150" result="shape"/>
</filter>
<linearGradient id="paint0_linear_35_150" x1="588.01" y1="460.906" x2="636.044" y2="473.76" gradientUnits="userSpaceOnUse">
<stop stop-color="#808080" stop-opacity="0.25"/>
<stop offset="0.54" stop-color="#808080" stop-opacity="0.12"/>
<stop offset="1" stop-color="#808080" stop-opacity="0.1"/>
</linearGradient>
</defs>
</svg>
