<svg width="128" height="128" viewBox="0 0 128 128" fill="none" xmlns="http://www.w3.org/2000/svg">
<path fill-rule="evenodd" clip-rule="evenodd" d="M106.667 21.3333V106.667H21.3333V21.3333H106.667ZM57.2498 42.6667H48.9393L33.1613 85.3333H40.6589L43.6377 76.9923H62.525L65.4399 85.3333H73.3891L57.2498 42.6667ZM86.6979 42.6667H79.2305V85.3333H86.6979V42.6667ZM53.0316 49.8251L60.4697 71.111H45.7117L53.0316 49.8251ZM113.778 85.3333H128V99.5556H113.778V85.3333ZM28.4444 113.778H42.6667V128H28.4444V113.778ZM56.8889 113.778H71.1111V128H56.8889V113.778ZM28.4444 0H42.6667V14.2222H28.4444V0ZM85.3333 113.778H99.5556V128H85.3333V113.778ZM56.8889 0H71.1111V14.2222H56.8889V0ZM85.3333 0H99.5556V14.2222H85.3333V0ZM113.778 56.8889H128V71.1111H113.778V56.8889ZM0 85.3333H14.2222V99.5556H0V85.3333ZM113.778 28.4444H128V42.6667H113.778V28.4444ZM0 56.8889H14.2222V71.1111H0V56.8889ZM0 28.4444H14.2222V42.6667H0V28.4444Z" fill="#3C3B3B"/>
</svg>
