<svg width="831" height="563" viewBox="0 0 831 563" fill="none" xmlns="http://www.w3.org/2000/svg">
<path d="M369.431 145.699C369.431 145.699 371.457 114.635 369.431 106.046C367.405 97.4561 355.223 76.6572 351.171 78.1698C347.119 79.6825 346.606 85.7871 351.171 93.8906C351.171 93.8906 325.294 72.8486 315.408 73.2267C305.521 73.6049 299.957 86.3003 301.47 92.3779C302.982 98.4555 325.78 108.99 327.347 113.987C328.913 118.984 332.911 154.099 332.911 154.099" fill="white"/>
<path d="M332.961 155.585C332.631 155.582 332.313 155.46 332.065 155.242C331.817 155.023 331.656 154.723 331.61 154.396C331.61 154.045 327.559 119.47 326.208 114.5C325.614 112.528 319.59 108.558 314.755 105.37C307.813 100.751 301.249 96.4026 300.331 92.702C299.981 90.1645 300.15 87.5823 300.828 85.1121C301.505 82.6418 302.678 80.3351 304.275 78.3319C305.53 76.4932 307.181 74.959 309.107 73.8419C311.033 72.7248 313.184 72.0531 315.403 71.8761C323.264 71.579 339.714 83.383 347.682 89.4066C346.528 86.6226 346.338 83.5324 347.142 80.6278C347.426 79.7817 347.896 79.01 348.518 78.3696C349.14 77.7291 349.897 77.2363 350.735 76.9273C351.181 76.7823 351.654 76.7363 352.121 76.7922C352.587 76.8482 353.036 77.0049 353.436 77.2514C359.027 80.2227 368.994 98.2664 370.75 105.749C372.803 114.446 370.75 144.51 370.75 145.78C370.743 145.958 370.701 146.134 370.624 146.296C370.548 146.457 370.439 146.602 370.306 146.72C370.172 146.839 370.015 146.929 369.846 146.986C369.676 147.042 369.497 147.064 369.318 147.049C368.965 147.022 368.636 146.856 368.404 146.588C368.171 146.32 368.054 145.972 368.076 145.618C368.076 145.293 370.048 114.662 368.076 106.37C365.888 97.0509 354.3 79.0612 351.572 79.3583C351.109 79.5436 350.692 79.8284 350.352 80.1924C350.011 80.5565 349.754 80.991 349.6 81.4652C348.628 84.1664 349.6 88.3802 352.301 93.1612C352.456 93.4308 352.512 93.7464 352.457 94.0526C352.403 94.3588 352.242 94.6362 352.004 94.8359C351.761 95.0381 351.456 95.1488 351.14 95.1488C350.824 95.1488 350.518 95.0381 350.275 94.8359C343.198 89.0555 323.264 74.1721 315.43 74.4692C313.593 74.6266 311.815 75.1936 310.226 76.1285C308.636 77.0633 307.277 78.3423 306.247 79.8715C303.531 83.2862 302.279 87.637 302.762 91.9727C303.437 94.6739 310.433 99.2928 316.079 103.02C323.318 107.828 327.802 110.935 328.612 113.663C330.125 118.849 334.014 152.56 334.23 153.991C334.269 154.349 334.166 154.707 333.944 154.989C333.722 155.272 333.398 155.457 333.042 155.504L332.961 155.585Z" fill="#231F20"/>
<path d="M435.985 561.622L815.795 473.105V411.978L435.985 450.983V561.622Z" fill="white"/>
<path d="M435.987 563C435.673 563 435.369 562.895 435.122 562.703C434.96 562.572 434.828 562.408 434.735 562.221C434.642 562.035 434.59 561.831 434.582 561.622V450.875C434.58 450.525 434.71 450.187 434.945 449.927C435.179 449.667 435.503 449.504 435.852 449.47L815.634 410.493C815.829 410.467 816.027 410.486 816.214 410.546C816.401 410.607 816.572 410.709 816.714 410.844C816.857 410.974 816.972 411.133 817.051 411.309C817.13 411.486 817.172 411.677 817.174 411.87V472.997C817.176 473.315 817.07 473.625 816.874 473.875C816.678 474.125 816.403 474.302 816.093 474.375L436.311 562.973L435.987 563ZM437.391 452.253V559.894L814.391 472.025V413.518L437.391 452.253Z" fill="#231F20"/>
<path d="M19.4131 349.96V416.814L435.985 561.622V428.915L19.4131 349.96Z" fill="white"/>
<path d="M435.986 563H435.527L18.9545 418.137C18.6842 418.037 18.451 417.857 18.2867 417.62C18.1224 417.383 18.035 417.102 18.0361 416.813V349.96C18.0387 349.756 18.0832 349.555 18.1669 349.369C18.2505 349.183 18.3715 349.017 18.5224 348.879C18.682 348.747 18.869 348.652 19.0698 348.601C19.2706 348.549 19.4803 348.543 19.6839 348.582L436.256 427.537C436.575 427.6 436.863 427.771 437.07 428.023C437.277 428.274 437.39 428.589 437.39 428.915V561.622C437.382 561.844 437.325 562.061 437.222 562.257C437.119 562.453 436.974 562.624 436.796 562.757C436.557 562.918 436.274 563.002 435.986 563ZM20.8183 415.841L434.581 559.732V430.076L20.8183 351.743V415.841Z" fill="#231F20"/>
<path d="M716.364 403.065C716.364 403.065 754.396 180.355 722.442 148.832C690.487 117.31 544.436 111.421 511.752 119.903C479.068 128.384 454.001 353.796 454.001 353.796L716.364 403.065Z" fill="#231F20"/>
<path d="M716.364 404.334H716.12L453.703 355.038C453.369 354.972 453.072 354.783 452.872 354.507C452.671 354.232 452.582 353.891 452.623 353.553C453.649 344.315 478.122 127.169 511.373 118.552C541.869 110.638 690.135 115.014 723.387 147.833C755.449 179.463 719.254 394.124 717.687 403.227C717.659 403.406 717.594 403.578 717.496 403.732C717.399 403.885 717.271 404.016 717.12 404.118C716.897 404.268 716.632 404.344 716.364 404.334ZM455.432 352.634L715.175 401.417C718.281 382.779 751.235 179.112 721.415 149.723C707.909 136.38 669.904 125.791 617.15 120.632C575.093 116.526 528.876 116.742 511.967 121.118C502.999 123.441 488.764 145.996 471.801 240.185C462.509 292.317 456.404 344.017 455.432 352.634Z" fill="#231F20"/>
<path d="M829.325 401.039V423.864L438.414 505.276L1.36719 355.632V337.427L829.325 401.039Z" fill="white"/>
<path d="M438.418 506.627C438.275 506.653 438.129 506.653 437.986 506.627L0.938908 356.983C0.674971 356.89 0.445699 356.718 0.281631 356.491C0.117562 356.265 0.0264829 355.993 0.0205148 355.713V337.427C0.0199159 337.24 0.0580859 337.055 0.132613 336.883C0.20714 336.712 0.316403 336.558 0.453492 336.431C0.590582 336.304 0.752516 336.207 0.929057 336.146C1.1056 336.085 1.2929 336.061 1.47913 336.076L829.437 399.688C829.776 399.715 830.092 399.87 830.323 400.12C830.553 400.37 830.681 400.699 830.68 401.039V423.863C830.68 424.175 830.572 424.477 830.375 424.718C830.178 424.959 829.904 425.125 829.599 425.187L438.715 506.573L438.418 506.627ZM2.72167 354.66L438.526 503.872L827.978 422.837V402.389L2.72167 338.885V354.66Z" fill="#231F20"/>
<path d="M655.373 158.367C668.15 204.935 638.059 423.891 638.059 423.891L462.079 355.092C462.079 355.092 498.22 311.658 455.002 220.629C437.336 183.407 455.515 163.905 467.832 153.424C478.178 144.618 642.57 111.799 655.373 158.367Z" fill="#609966"/>
<path d="M286.096 287.374L829.325 401.039L438.414 476.374L1.36719 337.427L286.096 287.374Z" fill="white"/>
<path d="M438.416 477.752H438.011L0.936939 338.75C0.647137 338.648 0.398892 338.453 0.230274 338.196C0.0616563 337.939 -0.0180313 337.634 0.00342985 337.328C0.024891 337.021 0.146319 336.73 0.349091 336.499C0.551862 336.268 0.824787 336.11 1.12602 336.049L285.855 286.024C286.023 285.983 286.199 285.983 286.368 286.024L829.624 399.688C829.939 399.756 830.22 399.93 830.422 400.181C830.623 400.432 830.733 400.744 830.732 401.066C830.72 401.385 830.603 401.692 830.397 401.937C830.191 402.181 829.91 402.35 829.597 402.416L438.686 477.725L438.416 477.752ZM7.20362 337.805L438.497 474.915L822.25 400.985L286.071 288.806L7.20362 337.805Z" fill="#231F20"/>
<path d="M462.319 366.572C462.319 366.572 329.99 324.731 327.694 324.731C325.398 324.731 158.115 353.444 158.115 353.444L297.036 400.958L462.319 366.572Z" fill="white"/>
<path d="M297.04 402.443C296.888 402.471 296.733 402.471 296.581 402.443L157.661 354.903C157.369 354.808 157.118 354.618 156.947 354.363C156.775 354.109 156.694 353.804 156.715 353.498C156.741 353.188 156.869 352.895 157.079 352.665C157.289 352.435 157.57 352.282 157.877 352.229C175.002 349.285 325.348 323.489 327.698 323.489C330.048 323.489 431.639 355.497 462.756 365.33C463.053 365.41 463.313 365.592 463.49 365.843C463.668 366.095 463.752 366.4 463.728 366.707C463.716 367.016 463.6 367.312 463.399 367.547C463.199 367.783 462.924 367.943 462.621 368.004L297.31 402.416L297.04 402.443ZM163.738 353.823L297.121 399.472L456.814 366.167C417.593 353.796 330.913 326.568 327.563 326.055C324.835 326.406 222.191 343.936 163.738 353.958V353.823Z" fill="#231F20"/>
<path d="M278.345 384.157C278.167 384.197 277.982 384.197 277.805 384.157L204.144 351.013C203.878 350.892 203.659 350.687 203.519 350.43C203.38 350.173 203.327 349.878 203.37 349.589C203.413 349.299 203.548 349.032 203.756 348.826C203.964 348.62 204.232 348.487 204.522 348.447L290.662 336.319C290.891 336.252 291.135 336.252 291.364 336.319L367.996 368.895C368.268 369.006 368.495 369.205 368.642 369.459C368.788 369.713 368.846 370.009 368.806 370.3C368.767 370.594 368.632 370.867 368.423 371.077C368.213 371.287 367.939 371.422 367.645 371.461L278.507 384.157H278.345ZM209.519 350.23L278.561 381.266L362.486 369.354L290.662 338.804L209.519 350.23Z" fill="#D1D3D4"/>
<path d="M297.04 401.039L463.08 381.482L462.324 366.572L297.04 388.694V401.039Z" fill="white"/>
<path d="M297.036 402.443C296.69 402.438 296.356 402.314 296.09 402.092C295.944 401.959 295.827 401.796 295.748 401.615C295.669 401.433 295.629 401.237 295.631 401.039V388.694C295.629 388.355 295.751 388.028 295.976 387.773C296.2 387.519 296.51 387.357 296.846 387.317L462.13 365.248C462.32 365.218 462.515 365.228 462.701 365.278C462.886 365.329 463.059 365.418 463.208 365.541C463.356 365.664 463.477 365.817 463.561 365.99C463.645 366.163 463.692 366.352 463.697 366.545L464.48 381.455C464.496 381.811 464.377 382.159 464.146 382.429C463.916 382.7 463.591 382.873 463.238 382.914L297.198 402.497L297.036 402.443ZM298.413 389.91V399.472L461.617 380.24L460.996 368.139L298.413 389.91Z" fill="#231F20"/>
<path d="M297.036 401.039L266.621 180.057L126.674 172.953L158.115 353.526L297.036 401.039Z" fill="white"/>
<path d="M297.035 402.443C296.884 402.471 296.728 402.471 296.576 402.443L157.656 354.903C157.418 354.826 157.206 354.684 157.043 354.493C156.881 354.302 156.775 354.07 156.737 353.823L125.296 173.196C125.26 172.991 125.271 172.78 125.327 172.579C125.383 172.378 125.483 172.192 125.62 172.035C125.758 171.88 125.93 171.758 126.121 171.678C126.313 171.599 126.52 171.564 126.728 171.576L266.782 178.653C267.109 178.674 267.418 178.806 267.659 179.027C267.9 179.248 268.057 179.545 268.106 179.868L298.521 400.85C298.551 401.087 298.519 401.329 298.43 401.551C298.34 401.773 298.195 401.969 298.008 402.119C297.875 402.235 297.721 402.324 297.554 402.379C297.387 402.435 297.211 402.457 297.035 402.443ZM159.277 352.472L295.28 398.986L265.324 181.381L128.294 174.439L159.277 352.472Z" fill="#231F20"/>
<path d="M369.215 361.386H368.755L322.836 345.179C322.478 345.15 322.145 344.98 321.912 344.707C321.679 344.433 321.565 344.078 321.593 343.72C321.622 343.362 321.792 343.03 322.065 342.797C322.339 342.564 322.694 342.449 323.052 342.478L349.307 338.372C349.529 338.317 349.761 338.317 349.982 338.372L396.874 355.497C397.163 355.599 397.409 355.797 397.571 356.057C397.733 356.317 397.802 356.624 397.766 356.929C397.729 357.233 397.588 357.515 397.366 357.727C397.144 357.939 396.856 358.067 396.55 358.09L369.539 361.143L369.215 361.386ZM328.697 344.476L369.431 358.658L390.527 356.308L349.361 341.262L328.697 344.476Z" fill="#D1D3D4"/>
<path d="M658.452 189.917L668.149 268.007C673.984 315.304 677.982 360.657 659.749 372.055C641.516 383.454 484.174 383.86 484.174 383.86C487.112 370.563 487.806 356.868 486.227 343.342C486.227 343.342 615.882 324.812 614.45 311.874C613.019 298.935 571.934 210.743 571.232 190.187C570.53 169.631 633.467 175.033 658.452 189.917Z" fill="#609966"/>
<path d="M467.833 153.424C467.833 153.424 380.991 224.14 381.613 210.769C381.937 203.719 380.046 133.949 380.046 133.949L325.834 136.326C325.834 136.326 304.414 250.746 323.133 278.92C346.849 314.575 381.099 303.041 426.749 276.434C485.202 242.346 499.68 227.814 499.68 227.814L467.833 153.424Z" fill="#609966"/>
<path d="M486.117 343.342C486.117 343.342 459.105 344.477 455.513 339.371C451.92 334.266 446.086 327.918 442.628 327.297C439.171 326.676 396.871 331.538 399.41 335.941C401.949 340.344 420.235 336.562 420.235 336.562C420.235 336.562 404.353 340.614 405.082 345.908C405.811 351.202 409.485 350.635 415.563 348.609C421.64 346.583 436.307 343.045 436.307 343.045C436.307 343.045 413.861 353.444 413.51 358.82C413.158 364.195 423.99 361.521 439.252 353.417C439.252 353.417 421.478 364.6 426.988 367.896C432.499 371.191 445.437 364.384 445.437 364.384C445.437 364.384 451.542 374.243 459.78 376.701C468.019 379.159 485.171 378.943 485.171 378.943C485.171 378.943 493.302 360.738 486.117 343.342Z" fill="white"/>
<path d="M484.094 380.24C480.232 380.24 466.537 380.078 459.271 377.917C452.005 375.756 446.737 368.787 444.846 366.059C441.335 367.761 431.341 372.109 426.154 369.003C425.642 368.717 425.214 368.303 424.911 367.801C424.608 367.299 424.44 366.726 424.426 366.14C424.832 363.811 426.07 361.709 427.91 360.224C422.076 362.574 416.376 364.006 413.621 362.277C413.056 361.896 412.606 361.367 412.32 360.748C412.034 360.129 411.924 359.443 412 358.766C412.217 355.389 418.429 351.013 424.615 347.475C421.319 348.339 418.051 349.258 415.89 349.96C411.946 351.257 408.462 352.202 406.085 350.716C405.348 350.191 404.742 349.504 404.311 348.708C403.88 347.912 403.637 347.028 403.6 346.124C403.222 343.423 405.599 341.235 408.651 339.48C403.924 339.669 399.44 339.101 398.063 336.616C397.861 336.244 397.771 335.822 397.805 335.4C397.838 334.978 397.994 334.575 398.252 334.239C401.79 329.323 439.633 325.352 442.902 325.947C447.305 326.73 453.706 334.536 456.651 338.561C458.811 341.667 475.153 342.424 486.066 341.965C486.353 341.95 486.638 342.025 486.88 342.18C487.122 342.335 487.31 342.562 487.417 342.829C494.737 360.576 486.687 378.673 486.336 379.43C486.228 379.669 486.053 379.873 485.833 380.016C485.613 380.16 485.357 380.238 485.094 380.24H484.094ZM445.333 362.872C445.572 362.874 445.807 362.937 446.015 363.055C446.223 363.173 446.397 363.342 446.521 363.547C446.521 363.547 452.464 373.001 460.027 375.243C466.888 377.296 480.448 377.458 484.094 377.458C485.499 373.865 490.604 359.09 485.148 344.774C478.827 344.99 457.92 345.314 454.328 340.182C450.114 334.185 444.846 329.134 442.334 328.675C438.148 327.919 404.518 332.538 400.737 335.617C402.681 337.319 411.865 336.832 419.807 335.212C419.981 335.172 420.161 335.167 420.336 335.197C420.512 335.227 420.68 335.292 420.831 335.387C420.982 335.483 421.112 335.607 421.214 335.753C421.317 335.899 421.389 336.064 421.427 336.238C421.472 336.414 421.481 336.596 421.455 336.776C421.429 336.955 421.368 337.127 421.275 337.283C421.182 337.438 421.06 337.574 420.914 337.682C420.769 337.79 420.604 337.869 420.428 337.913C414.513 339.426 405.923 342.964 406.301 345.719C406.288 346.229 406.387 346.736 406.593 347.203C406.798 347.67 407.104 348.086 407.49 348.42C408.867 349.285 412.081 348.42 414.972 347.394C421.049 345.395 435.203 341.992 435.825 341.803C436.002 341.744 436.189 341.721 436.375 341.735C436.562 341.749 436.743 341.799 436.91 341.883C437.077 341.967 437.226 342.083 437.348 342.224C437.469 342.366 437.562 342.53 437.621 342.707C437.679 342.885 437.702 343.072 437.689 343.258C437.675 343.444 437.624 343.626 437.54 343.793C437.456 343.96 437.34 344.108 437.199 344.23C437.057 344.352 436.893 344.445 436.716 344.504C426.29 349.339 414.918 356.281 414.729 359.117C414.729 359.819 414.945 359.981 415.08 360.089C416.592 361.062 423.183 360.495 438.418 352.229C438.732 352.098 439.082 352.085 439.405 352.193C439.728 352.301 440 352.523 440.172 352.817C440.343 353.11 440.402 353.456 440.338 353.79C440.274 354.124 440.091 354.424 439.822 354.633C433.718 358.496 427.127 364.033 427.154 366.248C427.154 366.383 427.154 366.545 427.532 366.761C431.503 369.138 441.227 365.005 444.63 363.196C444.83 363.025 445.073 362.913 445.333 362.872Z" fill="#231F20"/>
<path d="M506.351 341.64C506.029 341.612 505.727 341.472 505.498 341.243C505.27 341.015 505.128 340.713 505.099 340.391C505.07 340.069 505.156 339.748 505.34 339.482C505.524 339.217 505.796 339.024 506.108 338.939L611.939 320.517C605.042 302.196 599.181 283.502 594.382 264.522C583.739 221.925 582.119 189.565 589.547 168.307C589.601 168.132 589.691 167.971 589.81 167.832C589.929 167.693 590.075 167.579 590.239 167.498C590.403 167.418 590.582 167.371 590.765 167.361C590.948 167.352 591.131 167.38 591.303 167.443C591.653 167.565 591.941 167.822 592.103 168.156C592.264 168.49 592.288 168.875 592.167 169.226C574.879 218.792 614.748 320.085 615.154 321.084C615.246 321.269 615.295 321.472 615.295 321.679C615.295 321.885 615.246 322.089 615.154 322.273C615.052 322.453 614.912 322.61 614.745 322.731C614.577 322.852 614.384 322.936 614.181 322.975L506.675 341.694L506.351 341.64Z" fill="#231F20"/>
<path d="M438.415 506.654C438.05 506.654 437.699 506.509 437.441 506.25C437.183 505.992 437.037 505.642 437.037 505.276V476.374C436.978 476.165 436.967 475.945 437.007 475.731C437.047 475.517 437.136 475.316 437.267 475.142C437.398 474.969 437.567 474.828 437.762 474.731C437.956 474.634 438.171 474.584 438.388 474.584C438.605 474.584 438.82 474.634 439.014 474.731C439.209 474.828 439.378 474.969 439.509 475.142C439.64 475.316 439.729 475.517 439.769 475.731C439.809 475.945 439.798 476.165 439.739 476.374V505.276C439.739 505.633 439.601 505.975 439.354 506.232C439.108 506.489 438.771 506.64 438.415 506.654Z" fill="#231F20"/>
<path d="M476.096 298.449C475.739 298.449 475.397 298.312 475.14 298.065C474.883 297.818 474.732 297.481 474.718 297.125C473.773 277.569 468.505 262.308 463.913 248.829C460.748 240.878 458.527 232.582 457.295 224.113C457.106 222.195 456.917 220.359 456.755 218.711C455.243 203.639 454.054 191.699 462.995 164.958C463.112 164.609 463.362 164.32 463.69 164.153C464.019 163.986 464.4 163.955 464.751 164.067C464.923 164.124 465.083 164.216 465.22 164.336C465.357 164.455 465.468 164.601 465.549 164.764C465.629 164.928 465.676 165.105 465.688 165.287C465.699 165.468 465.674 165.65 465.615 165.822C456.89 192.051 457.998 203.125 459.537 218.441C459.7 220.224 459.889 222.06 460.051 223.978C461.272 232.225 463.447 240.301 466.533 248.046C471.26 261.713 476.609 277.164 477.554 297.125C477.569 297.494 477.438 297.853 477.191 298.126C476.943 298.399 476.598 298.563 476.231 298.584L476.096 298.449Z" fill="#231F20"/>
<path d="M554.757 438.558C579.282 438.558 599.164 432.572 599.164 425.187C599.164 417.803 579.282 411.817 554.757 411.817C530.231 411.817 510.35 417.803 510.35 425.187C510.35 432.572 530.231 438.558 554.757 438.558Z" fill="white"/>
<path d="M554.757 439.962C532.553 439.962 508.837 434.776 508.837 425.187C508.837 415.598 532.445 410.439 554.757 410.439C577.068 410.439 600.676 415.598 600.676 425.187C600.676 434.776 576.987 439.962 554.757 439.962ZM554.757 413.221C529.42 413.221 511.727 419.515 511.727 425.187C511.727 430.859 529.42 437.18 554.757 437.18C580.093 437.18 597.786 430.859 597.786 425.187C597.786 419.515 580.12 413.221 554.757 413.221Z" fill="#231F20"/>
<path d="M521.287 388.83L520.206 389.019C517.029 389.51 514.144 391.154 512.103 393.638C510.941 395.412 510.301 397.476 510.253 399.596C510.205 401.716 510.752 403.806 511.833 405.631C516.533 414.14 528.04 416.436 536.872 417.327C538.121 417.52 539.398 417.418 540.6 417.03C541.197 416.821 541.716 416.435 542.088 415.923C542.459 415.412 542.666 414.799 542.68 414.167C542.615 413.657 542.423 413.172 542.12 412.756C541.818 412.341 541.416 412.008 540.951 411.79C540.023 411.354 539.027 411.079 538.007 410.979C532.429 410.415 526.967 409.022 521.8 406.846C518.856 405.361 514.75 401.957 516.884 398.311C517.629 397.122 518.71 396.182 519.99 395.61C525.041 393.206 529.849 395.015 534.847 396.501C535.209 396.636 535.596 396.691 535.981 396.663C536.953 396.663 537.494 395.394 537.413 394.421C537.251 392.233 535.09 390.802 533.037 390.018C529.293 388.596 525.24 388.186 521.287 388.83Z" fill="white"/>
<path d="M538.279 418.785C537.739 418.813 537.198 418.813 536.658 418.785C522.99 417.489 514.428 413.383 510.538 406.387C509.319 404.331 508.706 401.973 508.768 399.584C508.83 397.194 509.565 394.871 510.889 392.881C513.181 390.122 516.396 388.289 519.938 387.722L521.073 387.533C525.215 386.908 529.449 387.364 533.363 388.857C536.577 390.099 538.441 392.071 538.63 394.448C538.742 395.3 538.525 396.163 538.023 396.86C537.522 397.558 536.773 398.038 535.929 398.202C535.344 398.24 534.758 398.167 534.2 397.986L532.904 397.581C528.582 396.285 524.503 395.042 520.37 397.014C519.339 397.432 518.461 398.158 517.858 399.094C517.665 399.41 517.539 399.763 517.488 400.13C517.437 400.497 517.462 400.871 517.561 401.228C518.515 403.221 520.155 404.803 522.18 405.685C526.593 407.612 531.275 408.851 536.064 409.358L538.117 409.682C539.292 409.799 540.436 410.128 541.493 410.655C542.27 410.997 542.923 411.569 543.363 412.295C543.803 413.02 544.009 413.864 543.953 414.711C543.897 415.558 543.582 416.367 543.05 417.028C542.518 417.689 541.795 418.171 540.98 418.407C540.11 418.696 539.195 418.824 538.279 418.785ZM521.505 390.207L520.478 390.369C517.616 390.793 515.005 392.243 513.131 394.448C512.122 396.008 511.572 397.821 511.543 399.678C511.515 401.536 512.009 403.365 512.969 404.955C516.4 411.141 524.233 414.734 536.928 415.922C537.956 416.091 539.008 416.026 540.008 415.733C540.328 415.7 540.627 415.556 540.852 415.326C541.078 415.096 541.215 414.794 541.241 414.472C541.266 414.151 541.179 413.831 540.993 413.568C540.807 413.305 540.535 413.115 540.224 413.032C539.43 412.664 538.582 412.426 537.712 412.33L535.686 412.005C530.606 411.47 525.639 410.149 520.965 408.089C518.263 406.853 516.117 404.658 514.941 401.93C514.73 401.21 514.672 400.454 514.769 399.709C514.867 398.965 515.119 398.25 515.508 397.608C516.38 396.18 517.673 395.058 519.209 394.394C524.314 391.963 529.122 393.421 533.768 394.826L535.065 395.231C535.244 395.252 535.425 395.252 535.605 395.231C535.696 395.129 535.765 395.009 535.807 394.879C535.849 394.749 535.863 394.611 535.848 394.475C535.713 392.746 533.363 391.774 532.363 391.261C528.92 389.959 525.201 389.56 521.559 390.099L521.505 390.207Z" fill="#231F20"/>
<path d="M525.423 379.727C525.423 379.727 533.742 421.216 534.418 423.701C535.093 426.187 557.188 432.615 570.397 426.403L584.092 383.995L525.423 379.727Z" fill="white"/>
<path d="M556.508 430.427C549.491 430.45 542.534 429.139 536.006 426.565C534.223 425.727 533.305 424.944 533.089 424.053C532.414 421.541 524.391 381.672 524.067 379.997C524.025 379.783 524.032 379.562 524.088 379.352C524.145 379.141 524.248 378.946 524.391 378.781C524.532 378.622 524.708 378.498 524.905 378.419C525.101 378.339 525.314 378.306 525.526 378.322L584.195 382.59C584.405 382.604 584.609 382.666 584.791 382.771C584.974 382.876 585.129 383.022 585.247 383.196C585.364 383.371 585.44 383.57 585.468 383.779C585.497 383.988 585.477 384.2 585.41 384.4L571.742 426.808C571.678 426.991 571.578 427.159 571.448 427.303C571.319 427.446 571.161 427.563 570.986 427.645C566.42 429.614 561.479 430.564 556.508 430.427ZM527.146 381.239C530.118 395.961 535.25 421.487 535.763 423.323C537.195 424.998 556.67 430.887 569.257 425.376L582.223 385.237L527.146 381.239Z" fill="#231F20"/>
<path d="M584.237 382.131C584.525 375.111 571.6 368.879 555.368 368.213C539.136 367.547 525.743 372.698 525.455 379.719C525.167 386.739 538.092 392.971 554.324 393.637C570.557 394.303 583.949 389.152 584.237 382.131Z" fill="#231F20"/>
<path d="M557.16 394.961H554.243C546.952 394.802 539.764 393.205 533.093 390.261C527.123 387.371 523.936 383.589 524.098 379.619C524.26 375.648 527.744 372.163 533.93 369.786C547.895 365.22 563.039 365.843 576.581 371.542C582.551 374.405 585.738 378.187 585.576 382.158C585.279 389.559 573.016 394.961 557.16 394.961ZM552.514 369.408C546.521 369.291 540.556 370.252 534.902 372.244C529.851 374.189 526.799 376.89 526.799 379.7C526.799 382.509 529.5 385.426 534.281 387.803C540.631 390.593 547.47 392.098 554.405 392.233C571.179 392.935 582.686 387.506 582.929 382.023C582.929 379.321 580.228 376.269 575.447 373.919C569.098 371.123 562.259 369.608 555.323 369.462L552.514 369.408Z" fill="#231F20"/>
<path d="M520.182 5.15754C520.182 5.15754 491.631 6.15696 483.257 19.9599C474.883 33.7628 476.018 54.1835 465.24 67.4462C454.463 80.7088 441.254 109.125 448.088 123.684C454.922 138.243 525.989 142.106 563.211 125.224C600.433 108.342 602.297 78.1697 599.488 58.9916C596.678 39.8134 583.065 -12.2649 520.182 5.15754Z" fill="white"/>
<path d="M500.379 137.676C498.326 137.676 496.273 137.676 494.22 137.676C474.097 137.109 451.002 133.3 446.869 124.36C439.9 109.53 452.677 80.844 464.184 66.6899C469.937 59.5859 472.287 50.1859 474.475 41.056C475.924 33.5139 478.492 26.2305 482.092 19.4467C490.493 5.5628 517.369 4.07716 519.908 3.96912C541.355 -1.94641 559.21 -0.379744 572.986 8.58809C593.38 21.9048 599.214 48.241 600.781 58.9646C603.941 80.5739 600.079 110.097 563.694 126.493C548 133.598 524.689 137.676 500.379 137.676ZM543.597 2.9967C535.752 3.10543 527.957 4.26833 520.422 6.45417H520.124C519.827 6.45417 492.194 7.58866 484.28 20.6082C480.811 27.1896 478.352 34.2558 476.987 41.5692C474.691 50.9692 472.287 60.6934 466.182 68.2296C454.892 82.1675 442.979 109.746 449.246 123.063C455.27 135.893 524.554 141.161 562.56 123.927C597.404 108.126 601.105 79.9796 598.08 59.0997C596.567 48.7543 590.949 23.3364 571.473 10.614C563.168 5.39953 553.509 2.74996 543.706 2.9967H543.597Z" fill="#231F20"/>
<path d="M571.017 164.58C571.017 164.58 547.814 221.304 528.501 219.737C509.188 218.171 509.89 175.952 509.89 175.952L571.017 164.58Z" fill="#231F20"/>
<path d="M529.282 221.115H528.391C508.078 219.467 508.402 177.734 508.429 175.979C508.425 175.669 508.532 175.368 508.73 175.131C508.928 174.893 509.205 174.734 509.51 174.682L570.772 163.283C571.005 163.233 571.248 163.249 571.473 163.33C571.698 163.411 571.895 163.554 572.042 163.742C572.2 163.931 572.303 164.158 572.341 164.401C572.379 164.644 572.35 164.892 572.258 165.12C571.312 167.416 549.109 221.115 529.282 221.115ZM511.104 177.086C511.104 183.623 512.454 217.09 528.607 218.414C542.95 219.602 561.615 183.299 568.8 166.363L511.104 177.086Z" fill="#231F20"/>
<path d="M514.966 136.488L509.888 175.952C509.888 175.952 516.398 192.159 542.923 189.647C559.292 188.026 571.15 164.58 571.15 164.58L576.391 87.1918C576.391 87.1918 539.601 66.9332 518.397 31.8722C518.397 31.8722 500.947 60.6665 488.198 57.8573C488.198 57.8573 484.065 96.7269 488.684 116.499C493.303 136.272 514.966 136.488 514.966 136.488Z" fill="white"/>
<path d="M537.117 191.267C514.697 191.267 508.782 177.113 508.511 176.465C508.459 176.243 508.459 176.011 508.511 175.789L513.509 137.73C508.349 137.244 491.494 134.246 487.442 116.796C482.824 97.0237 486.767 59.2886 486.956 57.6949C486.974 57.508 487.032 57.3271 487.125 57.1641C487.218 57.0011 487.345 56.8598 487.497 56.7495C487.653 56.6425 487.829 56.5682 488.015 56.5311C488.2 56.494 488.392 56.4948 488.577 56.5334C498.301 58.6943 512.617 38.9489 517.317 31.1696C517.446 30.9802 517.619 30.8251 517.822 30.718C518.024 30.6108 518.25 30.5548 518.479 30.5548C518.708 30.5548 518.933 30.6108 519.136 30.718C519.338 30.8251 519.511 30.9802 519.64 31.1696C540.466 65.5013 576.635 85.8139 576.986 86.003C577.207 86.1307 577.39 86.3164 577.513 86.5401C577.637 86.7638 577.698 87.0171 577.688 87.2726L572.448 164.661C572.427 164.84 572.372 165.015 572.286 165.174C571.8 166.173 559.914 189.322 543.005 190.97C541.049 191.173 539.083 191.273 537.117 191.267ZM511.159 175.762C512.185 177.977 519.262 190.592 542.654 188.296C557.24 186.864 568.396 166.687 569.666 164.201L574.852 87.9478C569.585 84.8685 538.035 65.5283 518.398 34.438C514.346 40.6236 500.813 60.0179 489.414 59.3696C488.739 66.4467 485.984 98.9416 489.982 116.094C494.303 134.57 514.13 135.002 514.967 135.002C515.159 135.004 515.349 135.047 515.523 135.128C515.697 135.209 515.852 135.326 515.978 135.472C516.103 135.618 516.196 135.789 516.25 135.973C516.304 136.157 516.318 136.351 516.291 136.542L511.159 175.762Z" fill="#231F20"/>
<path d="M512.236 157.26C516.743 157.792 521.311 157.219 525.546 155.59C529.782 153.962 533.557 151.327 536.547 147.914C547.108 136.11 544.65 133.976 544.65 133.976C535.049 136.975 524.908 137.841 514.937 136.515L512.236 157.26Z" fill="#231F20"/>
<path d="M515.48 158.826C514.313 158.838 513.147 158.747 511.995 158.556C511.656 158.496 511.353 158.309 511.147 158.033C510.941 157.757 510.848 157.413 510.888 157.07L513.589 136.326C513.609 136.149 513.664 135.977 513.752 135.822C513.839 135.667 513.957 135.532 514.098 135.423C514.24 135.315 514.401 135.236 514.574 135.191C514.746 135.147 514.926 135.138 515.102 135.164C524.882 136.458 534.827 135.611 544.247 132.679C544.48 132.599 544.73 132.582 544.972 132.63C545.214 132.677 545.439 132.787 545.625 132.949C546.003 133.3 546.786 134.354 545.868 136.947C543.782 141.332 540.969 145.332 537.548 148.778C534.796 151.926 531.404 154.451 527.599 156.184C523.793 157.917 519.661 158.818 515.48 158.826ZM513.751 156.125C517.838 156.394 521.932 155.715 525.713 154.141C529.495 152.566 532.861 150.139 535.549 147.049C541.222 140.701 542.924 137.379 543.437 135.839C534.557 138.303 525.287 139.045 516.128 138.027L513.751 156.125Z" fill="#231F20"/>
<path d="M523.772 73.875C523.772 73.875 510.995 94.6739 514.345 98.1854C517.694 101.697 526.635 98.9147 526.635 98.9147" fill="white"/>
<path d="M519.993 101.13C517.605 101.31 515.241 100.555 513.402 99.0226C509.701 95.268 518.615 79.7094 522.613 73.1726C522.803 72.8681 523.106 72.6515 523.455 72.5705C523.805 72.4894 524.172 72.5506 524.476 72.7404C524.781 72.9303 524.998 73.2333 525.079 73.5828C525.16 73.9323 525.099 74.2997 524.909 74.6042C518.399 85.1927 513.915 95.7002 515.32 97.1048C517.589 99.4008 523.99 98.1583 526.259 97.483C526.6 97.3816 526.966 97.4183 527.279 97.5851C527.593 97.7519 527.828 98.0355 527.934 98.3744C528.036 98.7182 528 99.0884 527.834 99.4062C527.667 99.724 527.384 99.9644 527.043 100.076C524.748 100.728 522.378 101.082 519.993 101.13Z" fill="#231F20"/>
<path d="M540.624 76.5499C542.459 76.3209 543.685 74.0352 543.362 71.4447C543.039 68.8541 541.289 66.9396 539.454 67.1686C537.618 67.3975 536.392 69.6832 536.715 72.2738C537.038 74.8644 538.788 76.7789 540.624 76.5499Z" fill="#231F20"/>
<path d="M511.64 73.8193C512.094 71.2485 510.986 68.9035 509.164 68.5817C507.342 68.2598 505.497 70.083 505.043 72.6538C504.589 75.2246 505.697 77.5696 507.519 77.8915C509.341 78.2133 511.186 76.3902 511.64 73.8193Z" fill="#231F20"/>
<path d="M522.666 116.742C519.177 116.895 515.722 115.996 512.75 114.161C509.778 112.325 507.426 109.639 506 106.451C505.92 106.247 505.893 106.026 505.921 105.809C505.949 105.592 506.032 105.385 506.162 105.208C506.286 105.03 506.452 104.885 506.645 104.787C506.838 104.688 507.053 104.638 507.27 104.641C537.928 104.641 538.09 104.803 538.603 105.37C538.736 105.509 538.836 105.676 538.897 105.858C538.958 106.04 538.977 106.233 538.954 106.424C538.943 106.66 538.858 106.887 538.711 107.072C538.441 107.45 532.093 116.148 524.449 116.688L522.666 116.742ZM509.485 107.342C511.062 109.742 513.287 111.645 515.902 112.831C518.518 114.017 521.416 114.436 524.26 114.041C528.609 113.744 532.687 109.962 534.875 107.558C529.824 107.45 518.182 107.396 509.485 107.396V107.342Z" fill="#231F20"/>
<path d="M580.846 74.0909C580.846 74.0909 591.407 28.7655 571.797 11.181C552.186 -6.40353 520.178 5.15742 520.178 5.15742C520.178 5.15742 556.157 2.91546 563.585 19.1764C571.013 35.4374 565.044 81.7622 565.044 81.7622L580.846 74.0909Z" fill="white"/>
<path d="M565.047 83.1129C564.754 83.1192 564.468 83.0237 564.237 82.8428C564.043 82.6973 563.891 82.5034 563.797 82.2805C563.702 82.0576 563.667 81.8137 563.697 81.5732C563.697 81.114 569.531 35.4105 562.373 19.7168C555.404 4.5093 520.613 6.48114 520.262 6.48114C519.94 6.50753 519.619 6.41493 519.36 6.22084C519.101 6.02674 518.923 5.7446 518.858 5.42769C518.787 5.10966 518.836 4.77674 518.996 4.49266C519.155 4.20858 519.414 3.99331 519.722 3.88803C521.046 3.40183 552.757 -7.78095 572.719 10.1547C592.68 28.0904 582.605 72.4974 582.146 74.3882C582.104 74.5837 582.019 74.7675 581.898 74.9263C581.776 75.0851 581.621 75.215 581.443 75.3066L565.615 82.9778C565.438 83.0636 565.244 83.1097 565.047 83.1129ZM531.04 3.86102C542.574 4.53631 559.726 7.48056 564.831 18.6093C571.395 33.0065 567.803 69.5261 566.668 79.4663L579.661 73.1456C580.822 67.7433 588.466 27.9283 570.909 12.1806C558.943 1.42998 541.872 1.99722 531.04 3.86102Z" fill="#231F20"/>
<path d="M594.879 92.4051C597.643 78.1509 591.196 64.9113 580.48 62.8337C569.763 60.756 558.836 70.6271 556.072 84.8813C553.309 99.1355 559.756 112.375 570.472 114.453C581.188 116.53 592.116 106.659 594.879 92.4051Z" fill="white"/>
<path d="M572.017 114.041C570.994 114.045 569.972 113.955 568.965 113.771C557.485 111.583 550.489 97.564 553.352 82.5996C554.549 75.7438 557.92 69.4552 562.968 64.664C565.073 62.5306 567.655 60.9283 570.501 59.989C573.347 59.0497 576.376 58.8004 579.337 59.2617C590.79 61.4496 597.786 75.4686 594.923 90.433C592.276 104.101 582.362 114.041 572.017 114.041ZM576.231 61.7737C571.937 61.9163 567.851 63.6603 564.778 66.6628C560.172 71.0659 557.104 76.833 556.026 83.1129C553.325 96.6186 559.457 109.206 569.532 111.097C579.607 112.988 589.764 103.561 592.357 90.0278C594.923 76.522 588.899 63.9346 578.851 62.0438C577.976 61.8273 577.079 61.7095 576.177 61.6927L576.231 61.7737Z" fill="#231F20"/>
<path d="M535.952 127.736C535.594 127.736 535.25 127.594 534.997 127.341C534.744 127.087 534.602 126.744 534.602 126.386C534.602 126.027 534.744 125.684 534.997 125.431C535.25 125.177 535.594 125.035 535.952 125.035C545.541 124.522 561.856 122.469 564.665 119.092C567.907 115.149 570.068 102.534 570.554 98.0234C570.575 97.846 570.631 97.6746 570.719 97.5189C570.806 97.3632 570.924 97.2262 571.064 97.1159C571.205 97.0055 571.365 96.9239 571.537 96.8757C571.709 96.8275 571.889 96.8136 572.067 96.8349C572.244 96.8562 572.415 96.9122 572.571 96.9997C572.727 97.0873 572.864 97.2046 572.974 97.3451C573.085 97.4855 573.166 97.6463 573.214 97.8183C573.263 97.9904 573.276 98.1702 573.255 98.3475C573.255 99.0498 571.175 115.446 566.718 120.794C562.261 126.142 538.707 127.547 536.033 127.736H535.952Z" fill="#231F20"/>
<path d="M545.136 121.552L530.394 122.883C528.328 123.07 526.805 124.889 526.991 126.947C527.177 129.005 529.001 130.522 531.067 130.335L545.809 129.004C547.874 128.817 549.398 126.998 549.212 124.94C549.026 122.882 547.201 121.365 545.136 121.552Z" fill="white"/>
<path d="M530.685 131.761C529.416 131.752 528.196 131.272 527.262 130.413C526.328 129.554 525.748 128.378 525.634 127.115C525.536 125.792 525.963 124.483 526.823 123.472C527.682 122.462 528.904 121.829 530.226 121.712L545.001 120.362C546.348 120.246 547.686 120.663 548.729 121.523C549.497 122.164 550.061 123.016 550.349 123.975C550.637 124.933 550.637 125.955 550.349 126.913C550.061 127.871 549.498 128.724 548.73 129.365C547.962 130.006 547.022 130.407 546.027 130.518L531.252 131.842L530.685 131.761ZM545.487 122.955H545.244L530.469 124.278C530.149 124.312 529.839 124.409 529.556 124.563C529.274 124.717 529.025 124.926 528.824 125.178C528.623 125.429 528.474 125.717 528.385 126.027C528.297 126.336 528.27 126.66 528.308 126.98C528.336 127.294 528.427 127.599 528.575 127.878C528.724 128.156 528.927 128.402 529.172 128.6C529.405 128.81 529.679 128.969 529.977 129.067C530.274 129.165 530.589 129.199 530.901 129.167L545.676 127.817C546 127.79 546.315 127.698 546.602 127.547C546.89 127.395 547.143 127.187 547.348 126.934C547.552 126.682 547.703 126.39 547.792 126.078C547.881 125.765 547.905 125.438 547.864 125.116C547.788 124.487 547.48 123.909 547 123.495C546.573 123.147 546.038 122.956 545.487 122.955Z" fill="#231F20"/>
<path d="M193.15 18.3123C149.527 18.3123 114.142 44.5945 114.142 76.9813C114.142 96.0785 126.432 113.042 145.448 123.738L163.114 148.751V131.248C172.852 134.196 182.975 135.68 193.15 135.65C236.774 135.65 272.186 109.395 272.186 76.9813C272.186 44.5675 236.774 18.3123 193.15 18.3123Z" fill="white"/>
<path d="M163.112 150.101C162.895 150.105 162.68 150.055 162.487 149.956C162.294 149.857 162.128 149.712 162.004 149.534L144.501 124.846C124.35 113.312 112.816 95.9162 112.816 76.9811C112.816 43.8109 148.85 16.9614 193.149 16.9614C237.448 16.9614 273.481 43.973 273.481 76.9811C273.481 109.989 237.448 137.001 193.149 137.001C183.445 136.992 173.789 135.629 164.462 132.949V148.643C164.464 148.931 164.373 149.213 164.203 149.447C164.033 149.68 163.793 149.853 163.517 149.939C163.395 150.021 163.257 150.076 163.112 150.101ZM193.149 19.6626C150.335 19.6626 115.518 45.3776 115.518 76.9811C115.518 95.1328 126.646 111.61 146.095 122.577C146.276 122.664 146.434 122.793 146.554 122.955L161.761 144.564V131.247C161.763 131.038 161.813 130.832 161.907 130.645C162 130.457 162.135 130.294 162.302 130.167C162.477 130.046 162.676 129.964 162.886 129.927C163.096 129.889 163.311 129.897 163.517 129.951C173.149 132.873 183.164 134.339 193.23 134.3C236.043 134.3 270.861 108.585 270.861 76.9811C270.861 45.3776 235.962 19.6626 193.149 19.6626Z" fill="#D1D3D4"/>
<path d="M155.226 83.653C158.955 83.653 161.978 80.6296 161.978 76.9001C161.978 73.1706 158.955 70.1472 155.226 70.1472C151.496 70.1472 148.473 73.1706 148.473 76.9001C148.473 80.6296 151.496 83.653 155.226 83.653Z" fill="#D1D3D4"/>
<path d="M193.148 83.653C196.878 83.653 199.901 80.6296 199.901 76.9001C199.901 73.1706 196.878 70.1472 193.148 70.1472C189.419 70.1472 186.396 73.1706 186.396 76.9001C186.396 80.6296 189.419 83.653 193.148 83.653Z" fill="#D1D3D4"/>
<path d="M231.051 83.653C234.78 83.653 237.804 80.6296 237.804 76.9001C237.804 73.1706 234.78 70.1472 231.051 70.1472C227.321 70.1472 224.298 73.1706 224.298 76.9001C224.298 80.6296 227.321 83.653 231.051 83.653Z" fill="#D1D3D4"/>
<path d="M677.362 240.779H677.226C676.861 240.738 676.525 240.558 676.289 240.277C676.053 239.995 675.934 239.634 675.957 239.267C681.359 176.573 702.833 154.18 703.725 153.262C703.992 153.046 704.329 152.936 704.672 152.952C705.015 152.968 705.34 153.109 705.586 153.348C705.832 153.588 705.982 153.909 706.007 154.251C706.033 154.594 705.932 154.934 705.724 155.207C705.508 155.423 684.114 177.977 678.712 239.51C678.685 239.851 678.532 240.171 678.282 240.406C678.033 240.64 677.704 240.774 677.362 240.779Z" fill="white"/>
</svg>
